<?xml version="1.0" encoding="UTF-8" standalone="no"?>
<!DOCTYPE svg PUBLIC "-//W3C//DTD SVG 1.1//EN"
 "http://www.w3.org/Graphics/SVG/1.1/DTD/svg11.dtd">
<!-- Generated by graphviz version 13.1.0 (20250701.0955)
 -->
<!-- Title: interface/driver_mcp9600_interface.h Pages: 1 -->
<svg width="931pt" height="176pt"
 viewBox="0.00 0.00 931.00 176.00" xmlns="http://www.w3.org/2000/svg" xmlns:xlink="http://www.w3.org/1999/xlink">
<g id="graph0" class="graph" transform="scale(1 1) rotate(0) translate(4 172)">
<title>interface/driver_mcp9600_interface.h</title>
<!-- Node1 -->
<g id="Node000001" class="node">
<title>Node1</title>
<g id="a_Node000001"><a xlink:title="driver mcp9600 interface header file">
<polygon fill="#999999" stroke="#666666" points="554.12,-168 428.62,-168 428.62,-136 554.12,-136 554.12,-168"/>
<text xml:space="preserve" text-anchor="start" x="436.62" y="-154.5" font-family="Helvetica,sans-Serif" font-size="10.00">interface/driver_mcp9600</text>
<text xml:space="preserve" text-anchor="middle" x="491.38" y="-142.5" font-family="Helvetica,sans-Serif" font-size="10.00">_interface.h</text>
</a>
</g>
</g>
<!-- Node2 -->
<g id="Node000002" class="node">
<title>Node2</title>
<g id="a_Node000002"><a xlink:href="driver__mcp9600__basic_8h.html" target="_top" xlink:title="driver mcp9600 basic header file">
<polygon fill="white" stroke="#666666" points="124.75,-100 0,-100 0,-68 124.75,-68 124.75,-100"/>
<text xml:space="preserve" text-anchor="start" x="8" y="-86.5" font-family="Helvetica,sans-Serif" font-size="10.00">example/driver_mcp9600</text>
<text xml:space="preserve" text-anchor="middle" x="62.38" y="-74.5" font-family="Helvetica,sans-Serif" font-size="10.00">_basic.h</text>
</a>
</g>
</g>
<!-- Node1&#45;&gt;Node2 -->
<g id="edge1_Node000001_Node000002" class="edge">
<title>Node1&#45;&gt;Node2</title>
<g id="a_edge1_Node000001_Node000002"><a xlink:title=" ">
<path fill="none" stroke="#63b8ff" d="M417.05,-141.78C344.69,-132.47 231.69,-117.07 134.38,-100 131.36,-99.47 128.27,-98.91 125.16,-98.32"/>
<polygon fill="#63b8ff" stroke="#63b8ff" points="416.44,-145.23 426.81,-143.03 417.33,-138.29 416.44,-145.23"/>
</a>
</g>
</g>
<!-- Node4 -->
<g id="Node000004" class="node">
<title>Node4</title>
<g id="a_Node000004"><a xlink:href="driver__mcp9600__interrupt_8h.html" target="_top" xlink:title="driver mcp9600 interrupt header file">
<polygon fill="white" stroke="#666666" points="267.75,-100 143,-100 143,-68 267.75,-68 267.75,-100"/>
<text xml:space="preserve" text-anchor="start" x="151" y="-86.5" font-family="Helvetica,sans-Serif" font-size="10.00">example/driver_mcp9600</text>
<text xml:space="preserve" text-anchor="middle" x="205.38" y="-74.5" font-family="Helvetica,sans-Serif" font-size="10.00">_interrupt.h</text>
</a>
</g>
</g>
<!-- Node1&#45;&gt;Node4 -->
<g id="edge3_Node000001_Node000004" class="edge">
<title>Node1&#45;&gt;Node4</title>
<g id="a_edge3_Node000001_Node000004"><a xlink:title=" ">
<path fill="none" stroke="#63b8ff" d="M417.07,-133.85C370.73,-123.16 311.76,-109.55 267.84,-99.41"/>
<polygon fill="#63b8ff" stroke="#63b8ff" points="416.25,-137.26 426.78,-136.09 417.83,-130.43 416.25,-137.26"/>
</a>
</g>
</g>
<!-- Node6 -->
<g id="Node000006" class="node">
<title>Node6</title>
<g id="a_Node000006"><a xlink:href="driver__mcp9600__shot_8h.html" target="_top" xlink:title="driver mcp9600 shot header file">
<polygon fill="white" stroke="#666666" points="410.75,-100 286,-100 286,-68 410.75,-68 410.75,-100"/>
<text xml:space="preserve" text-anchor="start" x="294" y="-86.5" font-family="Helvetica,sans-Serif" font-size="10.00">example/driver_mcp9600</text>
<text xml:space="preserve" text-anchor="middle" x="348.38" y="-74.5" font-family="Helvetica,sans-Serif" font-size="10.00">_shot.h</text>
</a>
</g>
</g>
<!-- Node1&#45;&gt;Node6 -->
<g id="edge5_Node000001_Node000006" class="edge">
<title>Node1&#45;&gt;Node6</title>
<g id="a_edge5_Node000001_Node000006"><a xlink:title=" ">
<path fill="none" stroke="#63b8ff" d="M447.48,-130.74C426.29,-120.96 401.29,-109.42 381.69,-100.38"/>
<polygon fill="#63b8ff" stroke="#63b8ff" points="445.93,-133.88 456.47,-134.89 448.86,-127.52 445.93,-133.88"/>
</a>
</g>
</g>
<!-- Node8 -->
<g id="Node000008" class="node">
<title>Node8</title>
<g id="a_Node000008"><a xlink:href="driver__mcp9600__interface__template_8c.html" target="_top" xlink:title="driver mcp9600 interface template source file">
<polygon fill="white" stroke="#666666" points="554.12,-100 428.62,-100 428.62,-68 554.12,-68 554.12,-100"/>
<text xml:space="preserve" text-anchor="start" x="436.62" y="-86.5" font-family="Helvetica,sans-Serif" font-size="10.00">interface/driver_mcp9600</text>
<text xml:space="preserve" text-anchor="middle" x="491.38" y="-74.5" font-family="Helvetica,sans-Serif" font-size="10.00">_interface_template.c</text>
</a>
</g>
</g>
<!-- Node1&#45;&gt;Node8 -->
<g id="edge7_Node000001_Node000008" class="edge">
<title>Node1&#45;&gt;Node8</title>
<g id="a_edge7_Node000001_Node000008"><a xlink:title=" ">
<path fill="none" stroke="#63b8ff" d="M491.38,-124.31C491.38,-116.12 491.38,-107.38 491.38,-100.22"/>
<polygon fill="#63b8ff" stroke="#63b8ff" points="487.88,-124.18 491.38,-134.18 494.88,-124.18 487.88,-124.18"/>
</a>
</g>
</g>
<!-- Node9 -->
<g id="Node000009" class="node">
<title>Node9</title>
<g id="a_Node000009"><a xlink:href="driver__mcp9600__interrupt__test_8h.html" target="_top" xlink:title="driver mcp9600 interrupt test header file">
<polygon fill="white" stroke="#666666" points="676.62,-100 572.12,-100 572.12,-68 676.62,-68 676.62,-100"/>
<text xml:space="preserve" text-anchor="start" x="580.12" y="-86.5" font-family="Helvetica,sans-Serif" font-size="10.00">test/driver_mcp9600</text>
<text xml:space="preserve" text-anchor="middle" x="624.38" y="-74.5" font-family="Helvetica,sans-Serif" font-size="10.00">_interrupt_test.h</text>
</a>
</g>
</g>
<!-- Node1&#45;&gt;Node9 -->
<g id="edge8_Node000001_Node000009" class="edge">
<title>Node1&#45;&gt;Node9</title>
<g id="a_edge8_Node000001_Node000009"><a xlink:title=" ">
<path fill="none" stroke="#63b8ff" d="M532.74,-130.47C552.33,-120.75 575.33,-109.34 593.39,-100.38"/>
<polygon fill="#63b8ff" stroke="#63b8ff" points="531.32,-127.27 523.91,-134.85 534.43,-133.54 531.32,-127.27"/>
</a>
</g>
</g>
<!-- Node11 -->
<g id="Node000011" class="node">
<title>Node11</title>
<g id="a_Node000011"><a xlink:href="driver__mcp9600__read__test_8h.html" target="_top" xlink:title="driver mcp9600 read test header file">
<polygon fill="white" stroke="#666666" points="799.62,-100 695.12,-100 695.12,-68 799.62,-68 799.62,-100"/>
<text xml:space="preserve" text-anchor="start" x="703.12" y="-86.5" font-family="Helvetica,sans-Serif" font-size="10.00">test/driver_mcp9600</text>
<text xml:space="preserve" text-anchor="middle" x="747.38" y="-74.5" font-family="Helvetica,sans-Serif" font-size="10.00">_read_test.h</text>
</a>
</g>
</g>
<!-- Node1&#45;&gt;Node11 -->
<g id="edge10_Node000001_Node000011" class="edge">
<title>Node1&#45;&gt;Node11</title>
<g id="a_edge10_Node000001_Node000011"><a xlink:title=" ">
<path fill="none" stroke="#63b8ff" d="M562.37,-132.7C604.28,-121.89 656.43,-108.45 694.67,-98.59"/>
<polygon fill="#63b8ff" stroke="#63b8ff" points="561.67,-129.26 552.86,-135.15 563.42,-136.04 561.67,-129.26"/>
</a>
</g>
</g>
<!-- Node13 -->
<g id="Node000013" class="node">
<title>Node13</title>
<g id="a_Node000013"><a xlink:href="driver__mcp9600__register__test_8h.html" target="_top" xlink:title="driver mcp9600 register test header file">
<polygon fill="white" stroke="#666666" points="922.62,-100 818.12,-100 818.12,-68 922.62,-68 922.62,-100"/>
<text xml:space="preserve" text-anchor="start" x="826.12" y="-86.5" font-family="Helvetica,sans-Serif" font-size="10.00">test/driver_mcp9600</text>
<text xml:space="preserve" text-anchor="middle" x="870.38" y="-74.5" font-family="Helvetica,sans-Serif" font-size="10.00">_register_test.h</text>
</a>
</g>
</g>
<!-- Node1&#45;&gt;Node13 -->
<g id="edge12_Node000001_Node000013" class="edge">
<title>Node1&#45;&gt;Node13</title>
<g id="a_edge12_Node000001_Node000013"><a xlink:title=" ">
<path fill="none" stroke="#63b8ff" d="M565.75,-140.71C630.18,-131.39 725.76,-116.61 808.38,-100 811.41,-99.39 814.53,-98.73 817.67,-98.05"/>
<polygon fill="#63b8ff" stroke="#63b8ff" points="565.39,-137.22 555.99,-142.11 566.38,-144.15 565.39,-137.22"/>
</a>
</g>
</g>
<!-- Node3 -->
<g id="Node000003" class="node">
<title>Node3</title>
<g id="a_Node000003"><a xlink:href="driver__mcp9600__basic_8c.html" target="_top" xlink:title="driver mcp9600 basic source file">
<polygon fill="white" stroke="#666666" points="124.75,-32 0,-32 0,0 124.75,0 124.75,-32"/>
<text xml:space="preserve" text-anchor="start" x="8" y="-18.5" font-family="Helvetica,sans-Serif" font-size="10.00">example/driver_mcp9600</text>
<text xml:space="preserve" text-anchor="middle" x="62.38" y="-6.5" font-family="Helvetica,sans-Serif" font-size="10.00">_basic.c</text>
</a>
</g>
</g>
<!-- Node2&#45;&gt;Node3 -->
<g id="edge2_Node000002_Node000003" class="edge">
<title>Node2&#45;&gt;Node3</title>
<g id="a_edge2_Node000002_Node000003"><a xlink:title=" ">
<path fill="none" stroke="#63b8ff" d="M62.38,-56.31C62.38,-48.12 62.38,-39.38 62.38,-32.22"/>
<polygon fill="#63b8ff" stroke="#63b8ff" points="58.88,-56.18 62.38,-66.18 65.88,-56.18 58.88,-56.18"/>
</a>
</g>
</g>
<!-- Node5 -->
<g id="Node000005" class="node">
<title>Node5</title>
<g id="a_Node000005"><a xlink:href="driver__mcp9600__interrupt_8c.html" target="_top" xlink:title="driver mcp9600 interrupt source file">
<polygon fill="white" stroke="#666666" points="267.75,-32 143,-32 143,0 267.75,0 267.75,-32"/>
<text xml:space="preserve" text-anchor="start" x="151" y="-18.5" font-family="Helvetica,sans-Serif" font-size="10.00">example/driver_mcp9600</text>
<text xml:space="preserve" text-anchor="middle" x="205.38" y="-6.5" font-family="Helvetica,sans-Serif" font-size="10.00">_interrupt.c</text>
</a>
</g>
</g>
<!-- Node4&#45;&gt;Node5 -->
<g id="edge4_Node000004_Node000005" class="edge">
<title>Node4&#45;&gt;Node5</title>
<g id="a_edge4_Node000004_Node000005"><a xlink:title=" ">
<path fill="none" stroke="#63b8ff" d="M205.38,-56.31C205.38,-48.12 205.38,-39.38 205.38,-32.22"/>
<polygon fill="#63b8ff" stroke="#63b8ff" points="201.88,-56.18 205.38,-66.18 208.88,-56.18 201.88,-56.18"/>
</a>
</g>
</g>
<!-- Node7 -->
<g id="Node000007" class="node">
<title>Node7</title>
<g id="a_Node000007"><a xlink:href="driver__mcp9600__shot_8c.html" target="_top" xlink:title="driver mcp9600 shot source file">
<polygon fill="white" stroke="#666666" points="410.75,-32 286,-32 286,0 410.75,0 410.75,-32"/>
<text xml:space="preserve" text-anchor="start" x="294" y="-18.5" font-family="Helvetica,sans-Serif" font-size="10.00">example/driver_mcp9600</text>
<text xml:space="preserve" text-anchor="middle" x="348.38" y="-6.5" font-family="Helvetica,sans-Serif" font-size="10.00">_shot.c</text>
</a>
</g>
</g>
<!-- Node6&#45;&gt;Node7 -->
<g id="edge6_Node000006_Node000007" class="edge">
<title>Node6&#45;&gt;Node7</title>
<g id="a_edge6_Node000006_Node000007"><a xlink:title=" ">
<path fill="none" stroke="#63b8ff" d="M348.38,-56.31C348.38,-48.12 348.38,-39.38 348.38,-32.22"/>
<polygon fill="#63b8ff" stroke="#63b8ff" points="344.88,-56.18 348.38,-66.18 351.88,-56.18 344.88,-56.18"/>
</a>
</g>
</g>
<!-- Node10 -->
<g id="Node000010" class="node">
<title>Node10</title>
<g id="a_Node000010"><a xlink:href="driver__mcp9600__interrupt__test_8c.html" target="_top" xlink:title="driver mcp9600 interrupt test source file">
<polygon fill="white" stroke="#666666" points="676.62,-32 572.12,-32 572.12,0 676.62,0 676.62,-32"/>
<text xml:space="preserve" text-anchor="start" x="580.12" y="-18.5" font-family="Helvetica,sans-Serif" font-size="10.00">test/driver_mcp9600</text>
<text xml:space="preserve" text-anchor="middle" x="624.38" y="-6.5" font-family="Helvetica,sans-Serif" font-size="10.00">_interrupt_test.c</text>
</a>
</g>
</g>
<!-- Node9&#45;&gt;Node10 -->
<g id="edge9_Node000009_Node000010" class="edge">
<title>Node9&#45;&gt;Node10</title>
<g id="a_edge9_Node000009_Node000010"><a xlink:title=" ">
<path fill="none" stroke="#63b8ff" d="M624.38,-56.31C624.38,-48.12 624.38,-39.38 624.38,-32.22"/>
<polygon fill="#63b8ff" stroke="#63b8ff" points="620.88,-56.18 624.38,-66.18 627.88,-56.18 620.88,-56.18"/>
</a>
</g>
</g>
<!-- Node12 -->
<g id="Node000012" class="node">
<title>Node12</title>
<g id="a_Node000012"><a xlink:href="driver__mcp9600__read__test_8c.html" target="_top" xlink:title="driver mcp9600 read test source file">
<polygon fill="white" stroke="#666666" points="799.62,-32 695.12,-32 695.12,0 799.62,0 799.62,-32"/>
<text xml:space="preserve" text-anchor="start" x="703.12" y="-18.5" font-family="Helvetica,sans-Serif" font-size="10.00">test/driver_mcp9600</text>
<text xml:space="preserve" text-anchor="middle" x="747.38" y="-6.5" font-family="Helvetica,sans-Serif" font-size="10.00">_read_test.c</text>
</a>
</g>
</g>
<!-- Node11&#45;&gt;Node12 -->
<g id="edge11_Node000011_Node000012" class="edge">
<title>Node11&#45;&gt;Node12</title>
<g id="a_edge11_Node000011_Node000012"><a xlink:title=" ">
<path fill="none" stroke="#63b8ff" d="M747.38,-56.31C747.38,-48.12 747.38,-39.38 747.38,-32.22"/>
<polygon fill="#63b8ff" stroke="#63b8ff" points="743.88,-56.18 747.38,-66.18 750.88,-56.18 743.88,-56.18"/>
</a>
</g>
</g>
<!-- Node14 -->
<g id="Node000014" class="node">
<title>Node14</title>
<g id="a_Node000014"><a xlink:href="driver__mcp9600__register__test_8c.html" target="_top" xlink:title="driver mcp9600 register test source file">
<polygon fill="white" stroke="#666666" points="922.62,-32 818.12,-32 818.12,0 922.62,0 922.62,-32"/>
<text xml:space="preserve" text-anchor="start" x="826.12" y="-18.5" font-family="Helvetica,sans-Serif" font-size="10.00">test/driver_mcp9600</text>
<text xml:space="preserve" text-anchor="middle" x="870.38" y="-6.5" font-family="Helvetica,sans-Serif" font-size="10.00">_register_test.c</text>
</a>
</g>
</g>
<!-- Node13&#45;&gt;Node14 -->
<g id="edge13_Node000013_Node000014" class="edge">
<title>Node13&#45;&gt;Node14</title>
<g id="a_edge13_Node000013_Node000014"><a xlink:title=" ">
<path fill="none" stroke="#63b8ff" d="M870.38,-56.31C870.38,-48.12 870.38,-39.38 870.38,-32.22"/>
<polygon fill="#63b8ff" stroke="#63b8ff" points="866.88,-56.18 870.38,-66.18 873.88,-56.18 866.88,-56.18"/>
</a>
</g>
</g>
</g>
</svg>
