<?xml version="1.0" encoding="UTF-8" standalone="no"?>
<!DOCTYPE svg PUBLIC "-//W3C//DTD SVG 1.1//EN"
 "http://www.w3.org/Graphics/SVG/1.1/DTD/svg11.dtd">
<!-- Generated by graphviz version 13.1.0 (20250701.0955)
 -->
<!-- Title: mcp9600_interrupt_deinit Pages: 1 -->
<svg width="325pt" height="66pt"
 viewBox="0.00 0.00 325.00 66.00" xmlns="http://www.w3.org/2000/svg" xmlns:xlink="http://www.w3.org/1999/xlink">
<g id="graph0" class="graph" transform="scale(1 1) rotate(0) translate(4 62)">
<title>mcp9600_interrupt_deinit</title>
<!-- Node1 -->
<g id="Node000001" class="node">
<title>Node1</title>
<g id="a_Node000001"><a xlink:title="interrupt example deinit">
<polygon fill="#999999" stroke="#666666" points="124.75,-39 0,-39 0,-19 124.75,-19 124.75,-39"/>
<text xml:space="preserve" text-anchor="middle" x="62.38" y="-25.5" font-family="Helvetica,sans-Serif" font-size="10.00">mcp9600_interrupt_deinit</text>
</a>
</g>
</g>
<!-- Node2 -->
<g id="Node000002" class="node">
<title>Node2</title>
<g id="a_Node000002"><a xlink:href="group__mcp9600__base__driver.html#gaf2d00e5cb1819fa65f9bcfae155f8d67" target="_top" xlink:title="close the chip">
<polygon fill="white" stroke="#666666" points="281,-58 196.75,-58 196.75,-38 281,-38 281,-58"/>
<text xml:space="preserve" text-anchor="middle" x="238.88" y="-44.5" font-family="Helvetica,sans-Serif" font-size="10.00">mcp9600_deinit</text>
</a>
</g>
</g>
<!-- Node1&#45;&gt;Node2 -->
<g id="edge1_Node000001_Node000002" class="edge">
<title>Node1&#45;&gt;Node2</title>
<g id="a_edge1_Node000001_Node000002"><a xlink:title=" ">
<path fill="none" stroke="#63b8ff" d="M124.9,-35.7C144.48,-37.83 165.96,-40.17 184.89,-42.23"/>
<polygon fill="#63b8ff" stroke="#63b8ff" points="184.48,-45.71 194.8,-43.31 185.24,-38.75 184.48,-45.71"/>
</a>
</g>
</g>
<!-- Node3 -->
<g id="Node000003" class="node">
<title>Node3</title>
<g id="a_Node000003"><a xlink:href="group__mcp9600__base__driver.html#ga56e1e80829e5e6a6e3fe28ccdf051c0f" target="_top" xlink:title="stop reading data">
<polygon fill="white" stroke="#666666" points="317,-20 160.75,-20 160.75,0 317,0 317,-20"/>
<text xml:space="preserve" text-anchor="middle" x="238.88" y="-6.5" font-family="Helvetica,sans-Serif" font-size="10.00">mcp9600_stop_continuous_read</text>
</a>
</g>
</g>
<!-- Node1&#45;&gt;Node3 -->
<g id="edge2_Node000001_Node000003" class="edge">
<title>Node1&#45;&gt;Node3</title>
<g id="a_edge2_Node000001_Node000003"><a xlink:title=" ">
<path fill="none" stroke="#63b8ff" d="M124.9,-22.3C132.79,-21.44 140.99,-20.55 149.21,-19.65"/>
<polygon fill="#63b8ff" stroke="#63b8ff" points="149.33,-23.16 158.89,-18.6 148.57,-16.2 149.33,-23.16"/>
</a>
</g>
</g>
</g>
</svg>
