<?xml version="1.0" encoding="UTF-8" standalone="no"?>
<!DOCTYPE svg PUBLIC "-//W3C//DTD SVG 1.1//EN"
 "http://www.w3.org/Graphics/SVG/1.1/DTD/svg11.dtd">
<!-- Generated by graphviz version 13.1.0 (20250701.0955)
 -->
<!-- Title: mcp9600_shot_init Pages: 1 -->
<svg width="304pt" height="1034pt"
 viewBox="0.00 0.00 304.00 1034.00" xmlns="http://www.w3.org/2000/svg" xmlns:xlink="http://www.w3.org/1999/xlink">
<g id="graph0" class="graph" transform="scale(1 1) rotate(0) translate(4 1030)">
<title>mcp9600_shot_init</title>
<!-- Node1 -->
<g id="Node000001" class="node">
<title>Node1</title>
<g id="a_Node000001"><a xlink:title="shot example init">
<polygon fill="#999999" stroke="#666666" points="97.75,-505 0,-505 0,-485 97.75,-485 97.75,-505"/>
<text xml:space="preserve" text-anchor="middle" x="48.88" y="-491.5" font-family="Helvetica,sans-Serif" font-size="10.00">mcp9600_shot_init</text>
</a>
</g>
</g>
<!-- Node2 -->
<g id="Node000002" class="node">
<title>Node2</title>
<g id="a_Node000002"><a xlink:href="group__mcp9600__base__driver.html#ga80d19ef147e0b82a3a3d04454acf642b" target="_top" xlink:title="convert the alert hysteresis to the register raw data">
<polygon fill="white" stroke="#666666" points="279.88,-1026 149.88,-1026 149.88,-994 279.88,-994 279.88,-1026"/>
<text xml:space="preserve" text-anchor="start" x="157.88" y="-1012.5" font-family="Helvetica,sans-Serif" font-size="10.00">mcp9600_alert_hysteresis</text>
<text xml:space="preserve" text-anchor="middle" x="214.88" y="-1000.5" font-family="Helvetica,sans-Serif" font-size="10.00">_convert_to_register</text>
</a>
</g>
</g>
<!-- Node1&#45;&gt;Node2 -->
<g id="edge1_Node000001_Node000002" class="edge">
<title>Node1&#45;&gt;Node2</title>
<g id="a_edge1_Node000001_Node000002"><a xlink:title=" ">
<path fill="none" stroke="#63b8ff" d="M50.21,-505.13C52.5,-568.44 67.81,-909.66 133.75,-985 135.68,-987.21 137.8,-989.22 140.08,-991.06"/>
<polygon fill="#63b8ff" stroke="#63b8ff" points="137.97,-993.86 148.23,-996.48 141.84,-988.03 137.97,-993.86"/>
</a>
</g>
</g>
<!-- Node3 -->
<g id="Node000003" class="node">
<title>Node3</title>
<g id="a_Node000003"><a xlink:href="group__mcp9600__base__driver.html#ga794ae6996fc6a11bc1553eb5f27e013c" target="_top" xlink:title="convert the alert limit to the register raw data">
<polygon fill="white" stroke="#666666" points="267.12,-976 162.62,-976 162.62,-944 267.12,-944 267.12,-976"/>
<text xml:space="preserve" text-anchor="start" x="170.62" y="-962.5" font-family="Helvetica,sans-Serif" font-size="10.00">mcp9600_alert_limit</text>
<text xml:space="preserve" text-anchor="middle" x="214.88" y="-950.5" font-family="Helvetica,sans-Serif" font-size="10.00">_convert_to_register</text>
</a>
</g>
</g>
<!-- Node1&#45;&gt;Node3 -->
<g id="edge2_Node000001_Node000003" class="edge">
<title>Node1&#45;&gt;Node3</title>
<g id="a_edge2_Node000001_Node000003"><a xlink:title=" ">
<path fill="none" stroke="#63b8ff" d="M50.43,-505.24C53.87,-564.97 74.09,-868.12 133.75,-935 138.83,-940.7 145.19,-945.11 152.09,-948.53"/>
<polygon fill="#63b8ff" stroke="#63b8ff" points="150.53,-951.67 161.11,-952.27 153.21,-945.2 150.53,-951.67"/>
</a>
</g>
</g>
<!-- Node4 -->
<g id="Node000004" class="node">
<title>Node4</title>
<g id="a_Node000004"><a xlink:href="group__mcp9600__base__driver.html#gaf2d00e5cb1819fa65f9bcfae155f8d67" target="_top" xlink:title="close the chip">
<polygon fill="white" stroke="#666666" points="257,-926 172.75,-926 172.75,-906 257,-906 257,-926"/>
<text xml:space="preserve" text-anchor="middle" x="214.88" y="-912.5" font-family="Helvetica,sans-Serif" font-size="10.00">mcp9600_deinit</text>
</a>
</g>
</g>
<!-- Node1&#45;&gt;Node4 -->
<g id="edge3_Node000001_Node000004" class="edge">
<title>Node1&#45;&gt;Node4</title>
<g id="a_edge3_Node000001_Node000004"><a xlink:title=" ">
<path fill="none" stroke="#63b8ff" d="M50.55,-505.15C54.53,-561.78 76.69,-838.37 133.75,-897 141.15,-904.6 150.98,-909.39 161.22,-912.36"/>
<polygon fill="#63b8ff" stroke="#63b8ff" points="160.4,-915.76 170.92,-914.58 161.96,-908.94 160.4,-915.76"/>
</a>
</g>
</g>
<!-- Node5 -->
<g id="Node000005" class="node">
<title>Node5</title>
<g id="a_Node000005"><a xlink:href="group__mcp9600__base__driver.html#gafbfdae20b5402e3b820c984cac0996cc" target="_top" xlink:title="initialize the chip">
<polygon fill="white" stroke="#666666" points="251.75,-888 178,-888 178,-868 251.75,-868 251.75,-888"/>
<text xml:space="preserve" text-anchor="middle" x="214.88" y="-874.5" font-family="Helvetica,sans-Serif" font-size="10.00">mcp9600_init</text>
</a>
</g>
</g>
<!-- Node1&#45;&gt;Node5 -->
<g id="edge4_Node000001_Node000005" class="edge">
<title>Node1&#45;&gt;Node5</title>
<g id="a_edge4_Node000001_Node000005"><a xlink:title=" ">
<path fill="none" stroke="#63b8ff" d="M50.8,-505.23C55.82,-558.8 81.64,-806.56 133.75,-859 142.55,-867.85 154.66,-872.88 166.8,-875.65"/>
<polygon fill="#63b8ff" stroke="#63b8ff" points="165.92,-879.05 176.38,-877.35 167.15,-872.16 165.92,-879.05"/>
</a>
</g>
</g>
<!-- Node6 -->
<g id="Node000006" class="node">
<title>Node6</title>
<g id="a_Node000006"><a xlink:href="group__mcp9600__interface__driver.html#ga750ea6193ec3f854306006205119c032" target="_top" xlink:title="interface print format data">
<polygon fill="white" stroke="#666666" points="279.88,-850 149.88,-850 149.88,-818 279.88,-818 279.88,-850"/>
<text xml:space="preserve" text-anchor="start" x="157.88" y="-836.5" font-family="Helvetica,sans-Serif" font-size="10.00">mcp9600_interface_debug</text>
<text xml:space="preserve" text-anchor="middle" x="214.88" y="-824.5" font-family="Helvetica,sans-Serif" font-size="10.00">_print</text>
</a>
</g>
</g>
<!-- Node1&#45;&gt;Node6 -->
<g id="edge5_Node000001_Node000006" class="edge">
<title>Node1&#45;&gt;Node6</title>
<g id="a_edge5_Node000001_Node000006"><a xlink:title=" ">
<path fill="none" stroke="#63b8ff" d="M49.33,-505.36C47.64,-548.86 47.03,-718.61 133.75,-809 135.74,-811.07 137.89,-812.97 140.18,-814.71"/>
<polygon fill="#63b8ff" stroke="#63b8ff" points="137.97,-817.46 148.28,-819.88 141.73,-811.55 137.97,-817.46"/>
</a>
</g>
</g>
<!-- Node7 -->
<g id="Node000007" class="node">
<title>Node7</title>
<g id="a_Node000007"><a xlink:href="group__mcp9600__interface__driver.html#ga76318609135b6f0eaeb2481a1711c1ef" target="_top" xlink:title="interface delay ms">
<polygon fill="white" stroke="#666666" points="287.75,-800 142,-800 142,-780 287.75,-780 287.75,-800"/>
<text xml:space="preserve" text-anchor="middle" x="214.88" y="-786.5" font-family="Helvetica,sans-Serif" font-size="10.00">mcp9600_interface_delay_ms</text>
</a>
</g>
</g>
<!-- Node1&#45;&gt;Node7 -->
<g id="edge6_Node000001_Node000007" class="edge">
<title>Node1&#45;&gt;Node7</title>
<g id="a_edge6_Node000001_Node000007"><a xlink:title=" ">
<path fill="none" stroke="#63b8ff" d="M49.62,-505.36C49.22,-545.95 53.46,-695.55 133.75,-771 134.66,-771.86 135.6,-772.68 136.58,-773.46"/>
<polygon fill="#63b8ff" stroke="#63b8ff" points="134.44,-776.25 144.72,-778.8 138.27,-770.39 134.44,-776.25"/>
</a>
</g>
</g>
<!-- Node8 -->
<g id="Node000008" class="node">
<title>Node8</title>
<g id="a_Node000008"><a xlink:href="group__mcp9600__interface__driver.html#ga00f1a24c086b36536ad33a2f354f237b" target="_top" xlink:title="interface iic bus deinit">
<polygon fill="white" stroke="#666666" points="271.62,-762 158.12,-762 158.12,-730 271.62,-730 271.62,-762"/>
<text xml:space="preserve" text-anchor="start" x="166.12" y="-748.5" font-family="Helvetica,sans-Serif" font-size="10.00">mcp9600_interface_iic</text>
<text xml:space="preserve" text-anchor="middle" x="214.88" y="-736.5" font-family="Helvetica,sans-Serif" font-size="10.00">_deinit</text>
</a>
</g>
</g>
<!-- Node1&#45;&gt;Node8 -->
<g id="edge7_Node000001_Node000008" class="edge">
<title>Node1&#45;&gt;Node8</title>
<g id="a_edge7_Node000001_Node000008"><a xlink:title=" ">
<path fill="none" stroke="#63b8ff" d="M50.57,-505.27C53.54,-540.67 68.16,-658.79 133.75,-721 137.87,-724.91 142.6,-728.21 147.65,-730.99"/>
<polygon fill="#63b8ff" stroke="#63b8ff" points="145.78,-733.98 156.32,-735.09 148.77,-727.65 145.78,-733.98"/>
</a>
</g>
</g>
<!-- Node9 -->
<g id="Node000009" class="node">
<title>Node9</title>
<g id="a_Node000009"><a xlink:href="group__mcp9600__interface__driver.html#gab398db2abe0ad0002f6c2cd7cc5f136b" target="_top" xlink:title="interface iic bus init">
<polygon fill="white" stroke="#666666" points="280.62,-712 149.12,-712 149.12,-692 280.62,-692 280.62,-712"/>
<text xml:space="preserve" text-anchor="middle" x="214.88" y="-698.5" font-family="Helvetica,sans-Serif" font-size="10.00">mcp9600_interface_iic_init</text>
</a>
</g>
</g>
<!-- Node1&#45;&gt;Node9 -->
<g id="edge8_Node000001_Node000009" class="edge">
<title>Node1&#45;&gt;Node9</title>
<g id="a_edge8_Node000001_Node000009"><a xlink:title=" ">
<path fill="none" stroke="#63b8ff" d="M51.29,-505.47C56.17,-537.45 75.41,-634.65 133.75,-683 135.44,-684.4 137.22,-685.71 139.07,-686.91"/>
<polygon fill="#63b8ff" stroke="#63b8ff" points="137.02,-689.79 147.48,-691.5 140.37,-683.64 137.02,-689.79"/>
</a>
</g>
</g>
<!-- Node10 -->
<g id="Node000010" class="node">
<title>Node10</title>
<g id="a_Node000010"><a xlink:href="group__mcp9600__interface__driver.html#gac54328353b81756b2c6ef9c1cd6886ad" target="_top" xlink:title="interface iic bus read command">
<polygon fill="white" stroke="#666666" points="271.62,-674 158.12,-674 158.12,-642 271.62,-642 271.62,-674"/>
<text xml:space="preserve" text-anchor="start" x="166.12" y="-660.5" font-family="Helvetica,sans-Serif" font-size="10.00">mcp9600_interface_iic</text>
<text xml:space="preserve" text-anchor="middle" x="214.88" y="-648.5" font-family="Helvetica,sans-Serif" font-size="10.00">_read_cmd</text>
</a>
</g>
</g>
<!-- Node1&#45;&gt;Node10 -->
<g id="edge9_Node000001_Node000010" class="edge">
<title>Node1&#45;&gt;Node10</title>
<g id="a_edge9_Node000001_Node000010"><a xlink:title=" ">
<path fill="none" stroke="#63b8ff" d="M53.27,-505.41C62.18,-531.06 88.69,-597.77 133.75,-633 137.98,-636.3 142.64,-639.17 147.54,-641.67"/>
<polygon fill="#63b8ff" stroke="#63b8ff" points="145.9,-644.77 156.45,-645.66 148.76,-638.38 145.9,-644.77"/>
</a>
</g>
</g>
<!-- Node11 -->
<g id="Node000011" class="node">
<title>Node11</title>
<g id="a_Node000011"><a xlink:href="group__mcp9600__interface__driver.html#ga21a02d87922bc92dc00ae78dbc86818c" target="_top" xlink:title="interface iic bus write command">
<polygon fill="white" stroke="#666666" points="271.62,-624 158.12,-624 158.12,-592 271.62,-592 271.62,-624"/>
<text xml:space="preserve" text-anchor="start" x="166.12" y="-610.5" font-family="Helvetica,sans-Serif" font-size="10.00">mcp9600_interface_iic</text>
<text xml:space="preserve" text-anchor="middle" x="214.88" y="-598.5" font-family="Helvetica,sans-Serif" font-size="10.00">_write_cmd</text>
</a>
</g>
</g>
<!-- Node1&#45;&gt;Node11 -->
<g id="edge10_Node000001_Node000011" class="edge">
<title>Node1&#45;&gt;Node11</title>
<g id="a_edge10_Node000001_Node000011"><a xlink:title=" ">
<path fill="none" stroke="#63b8ff" d="M56.93,-505.31C69.98,-523.61 99.69,-561.84 133.75,-583 138.04,-585.67 142.64,-588.07 147.39,-590.23"/>
<polygon fill="#63b8ff" stroke="#63b8ff" points="145.97,-593.43 156.55,-594.01 148.64,-586.96 145.97,-593.43"/>
</a>
</g>
</g>
<!-- Node12 -->
<g id="Node000012" class="node">
<title>Node12</title>
<g id="a_Node000012"><a xlink:href="group__mcp9600__base__driver.html#ga28a0bc0075b060067d69fbb028dd4b50" target="_top" xlink:title="set the active level">
<polygon fill="white" stroke="#666666" points="267.88,-574 161.88,-574 161.88,-542 267.88,-542 267.88,-574"/>
<text xml:space="preserve" text-anchor="start" x="169.88" y="-560.5" font-family="Helvetica,sans-Serif" font-size="10.00">mcp9600_set_active</text>
<text xml:space="preserve" text-anchor="middle" x="214.88" y="-548.5" font-family="Helvetica,sans-Serif" font-size="10.00">_level</text>
</a>
</g>
</g>
<!-- Node1&#45;&gt;Node12 -->
<g id="edge11_Node000001_Node000012" class="edge">
<title>Node1&#45;&gt;Node12</title>
<g id="a_edge11_Node000001_Node000012"><a xlink:title=" ">
<path fill="none" stroke="#63b8ff" d="M70.94,-505.42C87.72,-513.5 111.94,-524.69 133.75,-533 139.28,-535.11 145.08,-537.18 150.91,-539.16"/>
<polygon fill="#63b8ff" stroke="#63b8ff" points="149.38,-542.34 159.97,-542.17 151.58,-535.7 149.38,-542.34"/>
</a>
</g>
</g>
<!-- Node13 -->
<g id="Node000013" class="node">
<title>Node13</title>
<g id="a_Node000013"><a xlink:href="group__mcp9600__base__driver.html#gaf3b47bd6ba2acdacbf6a7c98505f6111" target="_top" xlink:title="set the adc resolution">
<polygon fill="white" stroke="#666666" points="286.25,-524 143.5,-524 143.5,-504 286.25,-504 286.25,-524"/>
<text xml:space="preserve" text-anchor="middle" x="214.88" y="-510.5" font-family="Helvetica,sans-Serif" font-size="10.00">mcp9600_set_adc_resolution</text>
</a>
</g>
</g>
<!-- Node1&#45;&gt;Node13 -->
<g id="edge12_Node000001_Node000013" class="edge">
<title>Node1&#45;&gt;Node13</title>
<g id="a_edge12_Node000001_Node000013"><a xlink:title=" ">
<path fill="none" stroke="#63b8ff" d="M98.19,-500.6C108.75,-501.82 120.21,-503.15 131.68,-504.48"/>
<polygon fill="#63b8ff" stroke="#63b8ff" points="131.27,-507.95 141.61,-505.63 132.08,-501 131.27,-507.95"/>
</a>
</g>
</g>
<!-- Node14 -->
<g id="Node000014" class="node">
<title>Node14</title>
<g id="a_Node000014"><a xlink:href="group__mcp9600__base__driver.html#gabc7fe15b39a1f45a698edbd64ed4c505" target="_top" xlink:title="set the iic address pin">
<polygon fill="white" stroke="#666666" points="273.12,-486 156.62,-486 156.62,-466 273.12,-466 273.12,-486"/>
<text xml:space="preserve" text-anchor="middle" x="214.88" y="-472.5" font-family="Helvetica,sans-Serif" font-size="10.00">mcp9600_set_addr_pin</text>
</a>
</g>
</g>
<!-- Node1&#45;&gt;Node14 -->
<g id="edge13_Node000001_Node000014" class="edge">
<title>Node1&#45;&gt;Node14</title>
<g id="a_edge13_Node000001_Node000014"><a xlink:title=" ">
<path fill="none" stroke="#63b8ff" d="M98.19,-489.4C112.87,-487.7 129.28,-485.8 145.03,-483.98"/>
<polygon fill="#63b8ff" stroke="#63b8ff" points="145.32,-487.47 154.85,-482.84 144.51,-480.51 145.32,-487.47"/>
</a>
</g>
</g>
<!-- Node15 -->
<g id="Node000015" class="node">
<title>Node15</title>
<g id="a_Node000015"><a xlink:href="group__mcp9600__base__driver.html#ga1692487f7003e132e6a6fef86553b9fc" target="_top" xlink:title="set the alert hysteresis">
<polygon fill="white" stroke="#666666" points="289.25,-448 140.5,-448 140.5,-428 289.25,-428 289.25,-448"/>
<text xml:space="preserve" text-anchor="middle" x="214.88" y="-434.5" font-family="Helvetica,sans-Serif" font-size="10.00">mcp9600_set_alert_hysteresis</text>
</a>
</g>
</g>
<!-- Node1&#45;&gt;Node15 -->
<g id="edge14_Node000001_Node000015" class="edge">
<title>Node1&#45;&gt;Node15</title>
<g id="a_edge14_Node000001_Node000015"><a xlink:title=" ">
<path fill="none" stroke="#63b8ff" d="M69.77,-484.67C86.49,-476.31 111.21,-464.7 133.75,-457 139.58,-455.01 145.73,-453.15 151.91,-451.43"/>
<polygon fill="#63b8ff" stroke="#63b8ff" points="152.78,-454.82 161.55,-448.89 150.99,-448.05 152.78,-454.82"/>
</a>
</g>
</g>
<!-- Node16 -->
<g id="Node000016" class="node">
<title>Node16</title>
<g id="a_Node000016"><a xlink:href="group__mcp9600__base__driver.html#ga51a4c6c7c6e87e384a343e844ae96036" target="_top" xlink:title="set the alert limit">
<polygon fill="white" stroke="#666666" points="275.75,-410 154,-410 154,-390 275.75,-390 275.75,-410"/>
<text xml:space="preserve" text-anchor="middle" x="214.88" y="-396.5" font-family="Helvetica,sans-Serif" font-size="10.00">mcp9600_set_alert_limit</text>
</a>
</g>
</g>
<!-- Node1&#45;&gt;Node16 -->
<g id="edge15_Node000001_Node000016" class="edge">
<title>Node1&#45;&gt;Node16</title>
<g id="a_edge15_Node000001_Node000016"><a xlink:title=" ">
<path fill="none" stroke="#63b8ff" d="M58.23,-484.61C72.1,-468.08 101.58,-435.93 133.75,-419 137.04,-417.27 140.49,-415.69 144.03,-414.26"/>
<polygon fill="#63b8ff" stroke="#63b8ff" points="145.2,-417.56 153.43,-410.88 142.84,-410.97 145.2,-417.56"/>
</a>
</g>
</g>
<!-- Node17 -->
<g id="Node000017" class="node">
<title>Node17</title>
<g id="a_Node000017"><a xlink:href="group__mcp9600__base__driver.html#gab501cc810e55ad20dd8f3ab533d99490" target="_top" xlink:title="set the alert output">
<polygon fill="white" stroke="#666666" points="280.25,-372 149.5,-372 149.5,-352 280.25,-352 280.25,-372"/>
<text xml:space="preserve" text-anchor="middle" x="214.88" y="-358.5" font-family="Helvetica,sans-Serif" font-size="10.00">mcp9600_set_alert_output</text>
</a>
</g>
</g>
<!-- Node1&#45;&gt;Node17 -->
<g id="edge16_Node000001_Node000017" class="edge">
<title>Node1&#45;&gt;Node17</title>
<g id="a_edge16_Node000001_Node000017"><a xlink:title=" ">
<path fill="none" stroke="#63b8ff" d="M54.43,-484.58C64.91,-461.9 92.97,-407.99 133.75,-381 135.88,-379.59 138.11,-378.28 140.4,-377.07"/>
<polygon fill="#63b8ff" stroke="#63b8ff" points="141.77,-380.29 149.45,-372.99 138.9,-373.91 141.77,-380.29"/>
</a>
</g>
</g>
<!-- Node18 -->
<g id="Node000018" class="node">
<title>Node18</title>
<g id="a_Node000018"><a xlink:href="group__mcp9600__base__driver.html#gac9776ca6e0ca4798f75205f877841095" target="_top" xlink:title="set the burst mode sample">
<polygon fill="white" stroke="#666666" points="280.25,-334 149.5,-334 149.5,-302 280.25,-302 280.25,-334"/>
<text xml:space="preserve" text-anchor="start" x="157.5" y="-320.5" font-family="Helvetica,sans-Serif" font-size="10.00">mcp9600_set_burst_mode</text>
<text xml:space="preserve" text-anchor="middle" x="214.88" y="-308.5" font-family="Helvetica,sans-Serif" font-size="10.00">_sample</text>
</a>
</g>
</g>
<!-- Node1&#45;&gt;Node18 -->
<g id="edge17_Node000001_Node000018" class="edge">
<title>Node1&#45;&gt;Node18</title>
<g id="a_edge17_Node000001_Node000018"><a xlink:title=" ">
<path fill="none" stroke="#63b8ff" d="M52.6,-484.76C60.41,-457.48 85.41,-382.45 133.75,-343 135.49,-341.58 137.3,-340.25 139.18,-338.99"/>
<polygon fill="#63b8ff" stroke="#63b8ff" points="140.83,-342.08 147.74,-334.04 137.33,-336.01 140.83,-342.08"/>
</a>
</g>
</g>
<!-- Node19 -->
<g id="Node000019" class="node">
<title>Node19</title>
<g id="a_Node000019"><a xlink:href="group__mcp9600__base__driver.html#ga3aea5edae9ee20f8766c60203018b3fb" target="_top" xlink:title="set the cold junction resolution">
<polygon fill="white" stroke="#666666" points="283.25,-284 146.5,-284 146.5,-252 283.25,-252 283.25,-284"/>
<text xml:space="preserve" text-anchor="start" x="154.5" y="-270.5" font-family="Helvetica,sans-Serif" font-size="10.00">mcp9600_set_cold_junction</text>
<text xml:space="preserve" text-anchor="middle" x="214.88" y="-258.5" font-family="Helvetica,sans-Serif" font-size="10.00">_resolution</text>
</a>
</g>
</g>
<!-- Node1&#45;&gt;Node19 -->
<g id="edge18_Node000001_Node000019" class="edge">
<title>Node1&#45;&gt;Node19</title>
<g id="a_edge18_Node000001_Node000019"><a xlink:title=" ">
<path fill="none" stroke="#63b8ff" d="M51.06,-484.9C55.45,-452.13 73.73,-347.78 133.75,-293 134.81,-292.03 135.91,-291.1 137.03,-290.21"/>
<polygon fill="#63b8ff" stroke="#63b8ff" points="138.63,-293.35 145,-284.88 134.74,-287.53 138.63,-293.35"/>
</a>
</g>
</g>
<!-- Node20 -->
<g id="Node000020" class="node">
<title>Node20</title>
<g id="a_Node000020"><a xlink:href="group__mcp9600__base__driver.html#ga2dfbba36857a81b1731555e6e978d788" target="_top" xlink:title="set the detect edge">
<polygon fill="white" stroke="#666666" points="281.38,-234 148.38,-234 148.38,-214 281.38,-214 281.38,-234"/>
<text xml:space="preserve" text-anchor="middle" x="214.88" y="-220.5" font-family="Helvetica,sans-Serif" font-size="10.00">mcp9600_set_detect_edge</text>
</a>
</g>
</g>
<!-- Node1&#45;&gt;Node20 -->
<g id="edge19_Node000001_Node000020" class="edge">
<title>Node1&#45;&gt;Node20</title>
<g id="a_edge19_Node000001_Node000020"><a xlink:title=" ">
<path fill="none" stroke="#63b8ff" d="M49.96,-484.74C50.87,-446.51 59.43,-311.02 133.75,-243 135.2,-241.67 136.73,-240.43 138.31,-239.28"/>
<polygon fill="#63b8ff" stroke="#63b8ff" points="139.91,-242.4 146.72,-234.28 136.33,-236.38 139.91,-242.4"/>
</a>
</g>
</g>
<!-- Node21 -->
<g id="Node000021" class="node">
<title>Node21</title>
<g id="a_Node000021"><a xlink:href="group__mcp9600__base__driver.html#gac0ebe612f2b53f8da1f40b6e2b2d37b4" target="_top" xlink:title="set the filter coefficient">
<polygon fill="white" stroke="#666666" points="264.12,-196 165.62,-196 165.62,-164 264.12,-164 264.12,-196"/>
<text xml:space="preserve" text-anchor="start" x="173.62" y="-182.5" font-family="Helvetica,sans-Serif" font-size="10.00">mcp9600_set_filter</text>
<text xml:space="preserve" text-anchor="middle" x="214.88" y="-170.5" font-family="Helvetica,sans-Serif" font-size="10.00">_coefficient</text>
</a>
</g>
</g>
<!-- Node1&#45;&gt;Node21 -->
<g id="edge20_Node000001_Node000021" class="edge">
<title>Node1&#45;&gt;Node21</title>
<g id="a_edge20_Node000001_Node000021"><a xlink:title=" ">
<path fill="none" stroke="#63b8ff" d="M49.6,-484.58C49.1,-443.05 52.89,-287.57 133.75,-205 139.57,-199.06 146.77,-194.52 154.46,-191.06"/>
<polygon fill="#63b8ff" stroke="#63b8ff" points="155.64,-194.36 163.74,-187.52 153.15,-187.82 155.64,-194.36"/>
</a>
</g>
</g>
<!-- Node22 -->
<g id="Node000022" class="node">
<title>Node22</title>
<g id="a_Node000022"><a xlink:href="group__mcp9600__base__driver.html#gae7673225885adde351373938f1f1d0ea" target="_top" xlink:title="set the interrupt mode">
<polygon fill="white" stroke="#666666" points="287,-146 142.75,-146 142.75,-126 287,-126 287,-146"/>
<text xml:space="preserve" text-anchor="middle" x="214.88" y="-132.5" font-family="Helvetica,sans-Serif" font-size="10.00">mcp9600_set_interrupt_mode</text>
</a>
</g>
</g>
<!-- Node1&#45;&gt;Node22 -->
<g id="edge21_Node000001_Node000022" class="edge">
<title>Node1&#45;&gt;Node22</title>
<g id="a_edge21_Node000001_Node000022"><a xlink:title=" ">
<path fill="none" stroke="#63b8ff" d="M50.97,-484.77C56.7,-433.34 84.74,-203.57 133.75,-155 134.51,-154.25 135.28,-153.53 136.08,-152.84"/>
<polygon fill="#63b8ff" stroke="#63b8ff" points="137.94,-155.81 144.16,-147.23 133.95,-150.06 137.94,-155.81"/>
</a>
</g>
</g>
<!-- Node23 -->
<g id="Node000023" class="node">
<title>Node23</title>
<g id="a_Node000023"><a xlink:href="group__mcp9600__base__driver.html#ga5880f966134c57de26a800e555cf9669" target="_top" xlink:title="set the mode">
<polygon fill="white" stroke="#666666" points="266.75,-108 163,-108 163,-88 266.75,-88 266.75,-108"/>
<text xml:space="preserve" text-anchor="middle" x="214.88" y="-94.5" font-family="Helvetica,sans-Serif" font-size="10.00">mcp9600_set_mode</text>
</a>
</g>
</g>
<!-- Node1&#45;&gt;Node23 -->
<g id="edge22_Node000001_Node000023" class="edge">
<title>Node1&#45;&gt;Node23</title>
<g id="a_edge22_Node000001_Node000023"><a xlink:title=" ">
<path fill="none" stroke="#63b8ff" d="M50.7,-484.74C55.34,-429.9 79.84,-171.7 133.75,-117 139.01,-111.66 145.47,-107.72 152.43,-104.81"/>
<polygon fill="#63b8ff" stroke="#63b8ff" points="153.11,-108.28 161.45,-101.75 150.86,-101.65 153.11,-108.28"/>
</a>
</g>
</g>
<!-- Node24 -->
<g id="Node000024" class="node">
<title>Node24</title>
<g id="a_Node000024"><a xlink:href="group__mcp9600__base__driver.html#gac70d652092c390c930ccb36e7eaa446d" target="_top" xlink:title="set the temperature maintain detect">
<polygon fill="white" stroke="#666666" points="280.62,-70 149.12,-70 149.12,-38 280.62,-38 280.62,-70"/>
<text xml:space="preserve" text-anchor="start" x="157.12" y="-56.5" font-family="Helvetica,sans-Serif" font-size="10.00">mcp9600_set_temperature</text>
<text xml:space="preserve" text-anchor="middle" x="214.88" y="-44.5" font-family="Helvetica,sans-Serif" font-size="10.00">_maintain_detect</text>
</a>
</g>
</g>
<!-- Node1&#45;&gt;Node24 -->
<g id="edge23_Node000001_Node000024" class="edge">
<title>Node1&#45;&gt;Node24</title>
<g id="a_edge23_Node000001_Node000024"><a xlink:title=" ">
<path fill="none" stroke="#63b8ff" d="M50.57,-484.57C54.62,-426.33 77.14,-141.79 133.75,-79 135.49,-77.07 137.39,-75.28 139.39,-73.63"/>
<polygon fill="#63b8ff" stroke="#63b8ff" points="141.28,-76.58 147.62,-68.09 137.37,-70.78 141.28,-76.58"/>
</a>
</g>
</g>
<!-- Node25 -->
<g id="Node000025" class="node">
<title>Node25</title>
<g id="a_Node000025"><a xlink:href="group__mcp9600__base__driver.html#ga5623f47bbaee76dcd5ee60a52a8cef92" target="_top" xlink:title="set the thermocouple type">
<polygon fill="white" stroke="#666666" points="296,-20 133.75,-20 133.75,0 296,0 296,-20"/>
<text xml:space="preserve" text-anchor="middle" x="214.88" y="-6.5" font-family="Helvetica,sans-Serif" font-size="10.00">mcp9600_set_thermocouple_type</text>
</a>
</g>
</g>
<!-- Node1&#45;&gt;Node25 -->
<g id="edge24_Node000001_Node000025" class="edge">
<title>Node1&#45;&gt;Node25</title>
<g id="a_edge24_Node000001_Node000025"><a xlink:title=" ">
<path fill="none" stroke="#63b8ff" d="M50.25,-484.51C52.71,-421.89 68.48,-97.95 133.75,-29 134.36,-28.36 134.98,-27.74 135.63,-27.13"/>
<polygon fill="#63b8ff" stroke="#63b8ff" points="137.62,-30.01 143.57,-21.24 133.45,-24.39 137.62,-30.01"/>
</a>
</g>
</g>
</g>
</svg>
