<?xml version="1.0" encoding="UTF-8" standalone="no"?>
<!DOCTYPE svg PUBLIC "-//W3C//DTD SVG 1.1//EN"
 "http://www.w3.org/Graphics/SVG/1.1/DTD/svg11.dtd">
<!-- Generated by graphviz version 13.1.0 (20250701.0955)
 -->
<!-- Title: mcp9600_interrupt_init Pages: 1 -->
<svg width="321pt" height="1072pt"
 viewBox="0.00 0.00 321.00 1072.00" xmlns="http://www.w3.org/2000/svg" xmlns:xlink="http://www.w3.org/1999/xlink">
<g id="graph0" class="graph" transform="scale(1 1) rotate(0) translate(4 1068)">
<title>mcp9600_interrupt_init</title>
<!-- Node1 -->
<g id="Node000001" class="node">
<title>Node1</title>
<g id="a_Node000001"><a xlink:title="interrupt example init">
<polygon fill="#999999" stroke="#666666" points="114.25,-524 0,-524 0,-504 114.25,-504 114.25,-524"/>
<text xml:space="preserve" text-anchor="middle" x="57.12" y="-510.5" font-family="Helvetica,sans-Serif" font-size="10.00">mcp9600_interrupt_init</text>
</a>
</g>
</g>
<!-- Node2 -->
<g id="Node000002" class="node">
<title>Node2</title>
<g id="a_Node000002"><a xlink:href="group__mcp9600__base__driver.html#ga80d19ef147e0b82a3a3d04454acf642b" target="_top" xlink:title="convert the alert hysteresis to the register raw data">
<polygon fill="white" stroke="#666666" points="296.38,-1064 166.38,-1064 166.38,-1032 296.38,-1032 296.38,-1064"/>
<text xml:space="preserve" text-anchor="start" x="174.38" y="-1050.5" font-family="Helvetica,sans-Serif" font-size="10.00">mcp9600_alert_hysteresis</text>
<text xml:space="preserve" text-anchor="middle" x="231.38" y="-1038.5" font-family="Helvetica,sans-Serif" font-size="10.00">_convert_to_register</text>
</a>
</g>
</g>
<!-- Node1&#45;&gt;Node2 -->
<g id="edge1_Node000001_Node000002" class="edge">
<title>Node1&#45;&gt;Node2</title>
<g id="a_edge1_Node000001_Node000002"><a xlink:title=" ">
<path fill="none" stroke="#63b8ff" d="M58.56,-524.1C61.57,-588.8 81.12,-944.77 150.25,-1023 152.19,-1025.2 154.32,-1027.2 156.6,-1029.04"/>
<polygon fill="#63b8ff" stroke="#63b8ff" points="154.51,-1031.85 164.78,-1034.44 158.36,-1026 154.51,-1031.85"/>
</a>
</g>
</g>
<!-- Node3 -->
<g id="Node000003" class="node">
<title>Node3</title>
<g id="a_Node000003"><a xlink:href="group__mcp9600__base__driver.html#ga794ae6996fc6a11bc1553eb5f27e013c" target="_top" xlink:title="convert the alert limit to the register raw data">
<polygon fill="white" stroke="#666666" points="283.62,-1014 179.12,-1014 179.12,-982 283.62,-982 283.62,-1014"/>
<text xml:space="preserve" text-anchor="start" x="187.12" y="-1000.5" font-family="Helvetica,sans-Serif" font-size="10.00">mcp9600_alert_limit</text>
<text xml:space="preserve" text-anchor="middle" x="231.38" y="-988.5" font-family="Helvetica,sans-Serif" font-size="10.00">_convert_to_register</text>
</a>
</g>
</g>
<!-- Node1&#45;&gt;Node3 -->
<g id="edge2_Node000001_Node000003" class="edge">
<title>Node1&#45;&gt;Node3</title>
<g id="a_edge2_Node000001_Node000003"><a xlink:title=" ">
<path fill="none" stroke="#63b8ff" d="M58.79,-524.28C62.97,-585.65 87.42,-903.25 150.25,-973 155.3,-978.6 161.57,-982.96 168.38,-986.35"/>
<polygon fill="#63b8ff" stroke="#63b8ff" points="166.68,-989.43 177.25,-990.07 169.38,-982.97 166.68,-989.43"/>
</a>
</g>
</g>
<!-- Node4 -->
<g id="Node000004" class="node">
<title>Node4</title>
<g id="a_Node000004"><a xlink:href="group__mcp9600__base__driver.html#gaf2d00e5cb1819fa65f9bcfae155f8d67" target="_top" xlink:title="close the chip">
<polygon fill="white" stroke="#666666" points="273.5,-964 189.25,-964 189.25,-944 273.5,-944 273.5,-964"/>
<text xml:space="preserve" text-anchor="middle" x="231.38" y="-950.5" font-family="Helvetica,sans-Serif" font-size="10.00">mcp9600_deinit</text>
</a>
</g>
</g>
<!-- Node1&#45;&gt;Node4 -->
<g id="edge3_Node000001_Node000004" class="edge">
<title>Node1&#45;&gt;Node4</title>
<g id="a_edge3_Node000001_Node000004"><a xlink:title=" ">
<path fill="none" stroke="#63b8ff" d="M58.92,-524.25C63.64,-582.71 89.94,-873.63 150.25,-935 157.68,-942.56 167.53,-947.34 177.78,-950.31"/>
<polygon fill="#63b8ff" stroke="#63b8ff" points="176.95,-953.71 187.48,-952.53 178.51,-946.88 176.95,-953.71"/>
</a>
</g>
</g>
<!-- Node5 -->
<g id="Node000005" class="node">
<title>Node5</title>
<g id="a_Node000005"><a xlink:href="group__mcp9600__base__driver.html#gafbfdae20b5402e3b820c984cac0996cc" target="_top" xlink:title="initialize the chip">
<polygon fill="white" stroke="#666666" points="268.25,-926 194.5,-926 194.5,-906 268.25,-906 268.25,-926"/>
<text xml:space="preserve" text-anchor="middle" x="231.38" y="-912.5" font-family="Helvetica,sans-Serif" font-size="10.00">mcp9600_init</text>
</a>
</g>
</g>
<!-- Node1&#45;&gt;Node5 -->
<g id="edge4_Node000001_Node000005" class="edge">
<title>Node1&#45;&gt;Node5</title>
<g id="a_edge4_Node000001_Node000005"><a xlink:title=" ">
<path fill="none" stroke="#63b8ff" d="M59.17,-524.4C64.97,-580.01 94.91,-841.84 150.25,-897 159.01,-905.73 171,-910.73 183.04,-913.52"/>
<polygon fill="#63b8ff" stroke="#63b8ff" points="182.06,-916.9 192.52,-915.24 183.31,-910.02 182.06,-916.9"/>
</a>
</g>
</g>
<!-- Node6 -->
<g id="Node000006" class="node">
<title>Node6</title>
<g id="a_Node000006"><a xlink:href="group__mcp9600__interface__driver.html#ga750ea6193ec3f854306006205119c032" target="_top" xlink:title="interface print format data">
<polygon fill="white" stroke="#666666" points="296.38,-888 166.38,-888 166.38,-856 296.38,-856 296.38,-888"/>
<text xml:space="preserve" text-anchor="start" x="174.38" y="-874.5" font-family="Helvetica,sans-Serif" font-size="10.00">mcp9600_interface_debug</text>
<text xml:space="preserve" text-anchor="middle" x="231.38" y="-862.5" font-family="Helvetica,sans-Serif" font-size="10.00">_print</text>
</a>
</g>
</g>
<!-- Node1&#45;&gt;Node6 -->
<g id="edge5_Node000001_Node000006" class="edge">
<title>Node1&#45;&gt;Node6</title>
<g id="a_edge5_Node000001_Node000006"><a xlink:title=" ">
<path fill="none" stroke="#63b8ff" d="M57.68,-524.38C56.36,-569.54 57.22,-750.89 150.25,-847 152.25,-849.06 154.41,-850.95 156.7,-852.69"/>
<polygon fill="#63b8ff" stroke="#63b8ff" points="154.5,-855.44 164.82,-857.84 158.25,-849.53 154.5,-855.44"/>
</a>
</g>
</g>
<!-- Node7 -->
<g id="Node000007" class="node">
<title>Node7</title>
<g id="a_Node000007"><a xlink:href="group__mcp9600__interface__driver.html#ga76318609135b6f0eaeb2481a1711c1ef" target="_top" xlink:title="interface delay ms">
<polygon fill="white" stroke="#666666" points="304.25,-838 158.5,-838 158.5,-818 304.25,-818 304.25,-838"/>
<text xml:space="preserve" text-anchor="middle" x="231.38" y="-824.5" font-family="Helvetica,sans-Serif" font-size="10.00">mcp9600_interface_delay_ms</text>
</a>
</g>
</g>
<!-- Node1&#45;&gt;Node7 -->
<g id="edge6_Node000001_Node000007" class="edge">
<title>Node1&#45;&gt;Node7</title>
<g id="a_edge6_Node000001_Node000007"><a xlink:title=" ">
<path fill="none" stroke="#63b8ff" d="M57.96,-524.5C57.88,-567.04 63.53,-728.13 150.25,-809 151.16,-809.85 152.11,-810.67 153.08,-811.45"/>
<polygon fill="#63b8ff" stroke="#63b8ff" points="150.96,-814.24 161.25,-816.77 154.78,-808.38 150.96,-814.24"/>
</a>
</g>
</g>
<!-- Node8 -->
<g id="Node000008" class="node">
<title>Node8</title>
<g id="a_Node000008"><a xlink:href="group__mcp9600__interface__driver.html#ga00f1a24c086b36536ad33a2f354f237b" target="_top" xlink:title="interface iic bus deinit">
<polygon fill="white" stroke="#666666" points="288.12,-800 174.62,-800 174.62,-768 288.12,-768 288.12,-800"/>
<text xml:space="preserve" text-anchor="start" x="182.62" y="-786.5" font-family="Helvetica,sans-Serif" font-size="10.00">mcp9600_interface_iic</text>
<text xml:space="preserve" text-anchor="middle" x="231.38" y="-774.5" font-family="Helvetica,sans-Serif" font-size="10.00">_deinit</text>
</a>
</g>
</g>
<!-- Node1&#45;&gt;Node8 -->
<g id="edge7_Node000001_Node000008" class="edge">
<title>Node1&#45;&gt;Node8</title>
<g id="a_edge7_Node000001_Node000008"><a xlink:title=" ">
<path fill="none" stroke="#63b8ff" d="M58.87,-524.35C62.14,-561.74 78.39,-691.14 150.25,-759 154.38,-762.9 159.11,-766.2 164.17,-768.97"/>
<polygon fill="#63b8ff" stroke="#63b8ff" points="162.31,-771.97 172.84,-773.07 165.29,-765.63 162.31,-771.97"/>
</a>
</g>
</g>
<!-- Node9 -->
<g id="Node000009" class="node">
<title>Node9</title>
<g id="a_Node000009"><a xlink:href="group__mcp9600__interface__driver.html#gab398db2abe0ad0002f6c2cd7cc5f136b" target="_top" xlink:title="interface iic bus init">
<polygon fill="white" stroke="#666666" points="297.12,-750 165.62,-750 165.62,-730 297.12,-730 297.12,-750"/>
<text xml:space="preserve" text-anchor="middle" x="231.38" y="-736.5" font-family="Helvetica,sans-Serif" font-size="10.00">mcp9600_interface_iic_init</text>
</a>
</g>
</g>
<!-- Node1&#45;&gt;Node9 -->
<g id="edge8_Node000001_Node000009" class="edge">
<title>Node1&#45;&gt;Node9</title>
<g id="a_edge8_Node000001_Node000009"><a xlink:title=" ">
<path fill="none" stroke="#63b8ff" d="M59.45,-524.07C64.42,-557.7 85.16,-667.01 150.25,-721 151.94,-722.4 153.72,-723.71 155.57,-724.92"/>
<polygon fill="#63b8ff" stroke="#63b8ff" points="153.52,-727.79 163.97,-729.5 156.87,-721.64 153.52,-727.79"/>
</a>
</g>
</g>
<!-- Node10 -->
<g id="Node000010" class="node">
<title>Node10</title>
<g id="a_Node000010"><a xlink:href="group__mcp9600__interface__driver.html#gac54328353b81756b2c6ef9c1cd6886ad" target="_top" xlink:title="interface iic bus read command">
<polygon fill="white" stroke="#666666" points="288.12,-712 174.62,-712 174.62,-680 288.12,-680 288.12,-712"/>
<text xml:space="preserve" text-anchor="start" x="182.62" y="-698.5" font-family="Helvetica,sans-Serif" font-size="10.00">mcp9600_interface_iic</text>
<text xml:space="preserve" text-anchor="middle" x="231.38" y="-686.5" font-family="Helvetica,sans-Serif" font-size="10.00">_read_cmd</text>
</a>
</g>
</g>
<!-- Node1&#45;&gt;Node10 -->
<g id="edge9_Node000001_Node000010" class="edge">
<title>Node1&#45;&gt;Node10</title>
<g id="a_edge9_Node000001_Node000010"><a xlink:title=" ">
<path fill="none" stroke="#63b8ff" d="M61.2,-524.18C70.13,-552.02 98.78,-630.11 150.25,-671 154.45,-674.34 159.1,-677.23 163.98,-679.74"/>
<polygon fill="#63b8ff" stroke="#63b8ff" points="162.33,-682.83 172.88,-683.75 165.2,-676.45 162.33,-682.83"/>
</a>
</g>
</g>
<!-- Node11 -->
<g id="Node000011" class="node">
<title>Node11</title>
<g id="a_Node000011"><a xlink:href="group__mcp9600__interface__driver.html#ga21a02d87922bc92dc00ae78dbc86818c" target="_top" xlink:title="interface iic bus write command">
<polygon fill="white" stroke="#666666" points="288.12,-662 174.62,-662 174.62,-630 288.12,-630 288.12,-662"/>
<text xml:space="preserve" text-anchor="start" x="182.62" y="-648.5" font-family="Helvetica,sans-Serif" font-size="10.00">mcp9600_interface_iic</text>
<text xml:space="preserve" text-anchor="middle" x="231.38" y="-636.5" font-family="Helvetica,sans-Serif" font-size="10.00">_write_cmd</text>
</a>
</g>
</g>
<!-- Node1&#45;&gt;Node11 -->
<g id="edge10_Node000001_Node000011" class="edge">
<title>Node1&#45;&gt;Node11</title>
<g id="a_edge10_Node000001_Node000011"><a xlink:title=" ">
<path fill="none" stroke="#63b8ff" d="M64.12,-524.21C77.09,-545.42 109.89,-594.49 150.25,-621 154.47,-623.78 159.03,-626.26 163.74,-628.47"/>
<polygon fill="#63b8ff" stroke="#63b8ff" points="162.27,-631.66 172.85,-632.33 165,-625.21 162.27,-631.66"/>
</a>
</g>
</g>
<!-- Node12 -->
<g id="Node000012" class="node">
<title>Node12</title>
<g id="a_Node000012"><a xlink:href="group__mcp9600__base__driver.html#ga28a0bc0075b060067d69fbb028dd4b50" target="_top" xlink:title="set the active level">
<polygon fill="white" stroke="#666666" points="284.38,-612 178.38,-612 178.38,-580 284.38,-580 284.38,-612"/>
<text xml:space="preserve" text-anchor="start" x="186.38" y="-598.5" font-family="Helvetica,sans-Serif" font-size="10.00">mcp9600_set_active</text>
<text xml:space="preserve" text-anchor="middle" x="231.38" y="-586.5" font-family="Helvetica,sans-Serif" font-size="10.00">_level</text>
</a>
</g>
</g>
<!-- Node1&#45;&gt;Node12 -->
<g id="edge11_Node000001_Node000012" class="edge">
<title>Node1&#45;&gt;Node12</title>
<g id="a_edge11_Node000001_Node000012"><a xlink:title=" ">
<path fill="none" stroke="#63b8ff" d="M72.48,-524.48C90.08,-536.94 121.16,-557.72 150.25,-571 155.72,-573.5 161.5,-575.84 167.36,-578.01"/>
<polygon fill="#63b8ff" stroke="#63b8ff" points="165.92,-581.21 176.51,-581.23 168.24,-574.61 165.92,-581.21"/>
</a>
</g>
</g>
<!-- Node13 -->
<g id="Node000013" class="node">
<title>Node13</title>
<g id="a_Node000013"><a xlink:href="group__mcp9600__base__driver.html#gaf3b47bd6ba2acdacbf6a7c98505f6111" target="_top" xlink:title="set the adc resolution">
<polygon fill="white" stroke="#666666" points="302.75,-562 160,-562 160,-542 302.75,-542 302.75,-562"/>
<text xml:space="preserve" text-anchor="middle" x="231.38" y="-548.5" font-family="Helvetica,sans-Serif" font-size="10.00">mcp9600_set_adc_resolution</text>
</a>
</g>
</g>
<!-- Node1&#45;&gt;Node13 -->
<g id="edge12_Node000001_Node000013" class="edge">
<title>Node1&#45;&gt;Node13</title>
<g id="a_edge12_Node000001_Node000013"><a xlink:title=" ">
<path fill="none" stroke="#63b8ff" d="M105.65,-524.48C126.17,-529.01 150.38,-534.35 171.98,-539.12"/>
<polygon fill="#63b8ff" stroke="#63b8ff" points="171.01,-542.49 181.53,-541.22 172.52,-535.65 171.01,-542.49"/>
</a>
</g>
</g>
<!-- Node14 -->
<g id="Node000014" class="node">
<title>Node14</title>
<g id="a_Node000014"><a xlink:href="group__mcp9600__base__driver.html#gabc7fe15b39a1f45a698edbd64ed4c505" target="_top" xlink:title="set the iic address pin">
<polygon fill="white" stroke="#666666" points="289.62,-524 173.12,-524 173.12,-504 289.62,-504 289.62,-524"/>
<text xml:space="preserve" text-anchor="middle" x="231.38" y="-510.5" font-family="Helvetica,sans-Serif" font-size="10.00">mcp9600_set_addr_pin</text>
</a>
</g>
</g>
<!-- Node1&#45;&gt;Node14 -->
<g id="edge13_Node000001_Node000014" class="edge">
<title>Node1&#45;&gt;Node14</title>
<g id="a_edge13_Node000001_Node000014"><a xlink:title=" ">
<path fill="none" stroke="#63b8ff" d="M114.53,-514C129.53,-514 145.9,-514 161.49,-514"/>
<polygon fill="#63b8ff" stroke="#63b8ff" points="161.15,-517.5 171.15,-514 161.15,-510.5 161.15,-517.5"/>
</a>
</g>
</g>
<!-- Node15 -->
<g id="Node000015" class="node">
<title>Node15</title>
<g id="a_Node000015"><a xlink:href="group__mcp9600__base__driver.html#ga1692487f7003e132e6a6fef86553b9fc" target="_top" xlink:title="set the alert hysteresis">
<polygon fill="white" stroke="#666666" points="305.75,-486 157,-486 157,-466 305.75,-466 305.75,-486"/>
<text xml:space="preserve" text-anchor="middle" x="231.38" y="-472.5" font-family="Helvetica,sans-Serif" font-size="10.00">mcp9600_set_alert_hysteresis</text>
</a>
</g>
</g>
<!-- Node1&#45;&gt;Node15 -->
<g id="edge14_Node000001_Node000015" class="edge">
<title>Node1&#45;&gt;Node15</title>
<g id="a_edge14_Node000001_Node000015"><a xlink:title=" ">
<path fill="none" stroke="#63b8ff" d="M105.65,-503.52C126.17,-498.99 150.38,-493.65 171.98,-488.88"/>
<polygon fill="#63b8ff" stroke="#63b8ff" points="172.52,-492.35 181.53,-486.78 171.01,-485.51 172.52,-492.35"/>
</a>
</g>
</g>
<!-- Node16 -->
<g id="Node000016" class="node">
<title>Node16</title>
<g id="a_Node000016"><a xlink:href="group__mcp9600__base__driver.html#ga51a4c6c7c6e87e384a343e844ae96036" target="_top" xlink:title="set the alert limit">
<polygon fill="white" stroke="#666666" points="292.25,-448 170.5,-448 170.5,-428 292.25,-428 292.25,-448"/>
<text xml:space="preserve" text-anchor="middle" x="231.38" y="-434.5" font-family="Helvetica,sans-Serif" font-size="10.00">mcp9600_set_alert_limit</text>
</a>
</g>
</g>
<!-- Node1&#45;&gt;Node16 -->
<g id="edge15_Node000001_Node000016" class="edge">
<title>Node1&#45;&gt;Node16</title>
<g id="a_edge15_Node000001_Node000016"><a xlink:title=" ">
<path fill="none" stroke="#63b8ff" d="M71.72,-503.62C89.06,-490.87 120.37,-469.4 150.25,-457 154.91,-455.07 159.8,-453.31 164.78,-451.71"/>
<polygon fill="#63b8ff" stroke="#63b8ff" points="165.7,-455.08 174.3,-448.89 163.72,-448.37 165.7,-455.08"/>
</a>
</g>
</g>
<!-- Node17 -->
<g id="Node000017" class="node">
<title>Node17</title>
<g id="a_Node000017"><a xlink:href="group__mcp9600__base__driver.html#gab501cc810e55ad20dd8f3ab533d99490" target="_top" xlink:title="set the alert output">
<polygon fill="white" stroke="#666666" points="296.75,-410 166,-410 166,-390 296.75,-390 296.75,-410"/>
<text xml:space="preserve" text-anchor="middle" x="231.38" y="-396.5" font-family="Helvetica,sans-Serif" font-size="10.00">mcp9600_set_alert_output</text>
</a>
</g>
</g>
<!-- Node1&#45;&gt;Node17 -->
<g id="edge16_Node000001_Node000017" class="edge">
<title>Node1&#45;&gt;Node17</title>
<g id="a_edge16_Node000001_Node000017"><a xlink:title=" ">
<path fill="none" stroke="#63b8ff" d="M65.11,-503.55C78.91,-483.78 111.7,-440.91 150.25,-419 153.1,-417.38 156.09,-415.89 159.17,-414.54"/>
<polygon fill="#63b8ff" stroke="#63b8ff" points="160.4,-417.81 168.47,-410.94 157.88,-411.28 160.4,-417.81"/>
</a>
</g>
</g>
<!-- Node18 -->
<g id="Node000018" class="node">
<title>Node18</title>
<g id="a_Node000018"><a xlink:href="group__mcp9600__base__driver.html#gac9776ca6e0ca4798f75205f877841095" target="_top" xlink:title="set the burst mode sample">
<polygon fill="white" stroke="#666666" points="296.75,-372 166,-372 166,-340 296.75,-340 296.75,-372"/>
<text xml:space="preserve" text-anchor="start" x="174" y="-358.5" font-family="Helvetica,sans-Serif" font-size="10.00">mcp9600_set_burst_mode</text>
<text xml:space="preserve" text-anchor="middle" x="231.38" y="-346.5" font-family="Helvetica,sans-Serif" font-size="10.00">_sample</text>
</a>
</g>
</g>
<!-- Node1&#45;&gt;Node18 -->
<g id="edge17_Node000001_Node000018" class="edge">
<title>Node1&#45;&gt;Node18</title>
<g id="a_edge17_Node000001_Node000018"><a xlink:title=" ">
<path fill="none" stroke="#63b8ff" d="M62.43,-503.6C73.3,-478.61 104.3,-414.76 150.25,-381 152.01,-379.71 153.84,-378.48 155.73,-377.31"/>
<polygon fill="#63b8ff" stroke="#63b8ff" points="157.09,-380.55 164.21,-372.71 153.75,-374.4 157.09,-380.55"/>
</a>
</g>
</g>
<!-- Node19 -->
<g id="Node000019" class="node">
<title>Node19</title>
<g id="a_Node000019"><a xlink:href="group__mcp9600__base__driver.html#ga3aea5edae9ee20f8766c60203018b3fb" target="_top" xlink:title="set the cold junction resolution">
<polygon fill="white" stroke="#666666" points="299.75,-322 163,-322 163,-290 299.75,-290 299.75,-322"/>
<text xml:space="preserve" text-anchor="start" x="171" y="-308.5" font-family="Helvetica,sans-Serif" font-size="10.00">mcp9600_set_cold_junction</text>
<text xml:space="preserve" text-anchor="middle" x="231.38" y="-296.5" font-family="Helvetica,sans-Serif" font-size="10.00">_resolution</text>
</a>
</g>
</g>
<!-- Node1&#45;&gt;Node19 -->
<g id="edge18_Node000001_Node000019" class="edge">
<title>Node1&#45;&gt;Node19</title>
<g id="a_edge18_Node000001_Node000019"><a xlink:title=" ">
<path fill="none" stroke="#63b8ff" d="M60.36,-503.52C67.54,-472.39 93.01,-379.55 150.25,-331 151.34,-330.07 152.47,-329.18 153.63,-328.32"/>
<polygon fill="#63b8ff" stroke="#63b8ff" points="155.19,-331.48 161.75,-323.16 151.43,-325.57 155.19,-331.48"/>
</a>
</g>
</g>
<!-- Node20 -->
<g id="Node000020" class="node">
<title>Node20</title>
<g id="a_Node000020"><a xlink:href="group__mcp9600__base__driver.html#ga2dfbba36857a81b1731555e6e978d788" target="_top" xlink:title="set the detect edge">
<polygon fill="white" stroke="#666666" points="297.88,-272 164.88,-272 164.88,-252 297.88,-252 297.88,-272"/>
<text xml:space="preserve" text-anchor="middle" x="231.38" y="-258.5" font-family="Helvetica,sans-Serif" font-size="10.00">mcp9600_set_detect_edge</text>
</a>
</g>
</g>
<!-- Node1&#45;&gt;Node20 -->
<g id="edge19_Node000001_Node000020" class="edge">
<title>Node1&#45;&gt;Node20</title>
<g id="a_edge19_Node000001_Node000020"><a xlink:title=" ">
<path fill="none" stroke="#63b8ff" d="M58.92,-503.73C62.31,-467.24 78.89,-342.78 150.25,-281 151.74,-279.71 153.29,-278.51 154.91,-277.39"/>
<polygon fill="#63b8ff" stroke="#63b8ff" points="156.49,-280.52 163.43,-272.51 153.01,-274.44 156.49,-280.52"/>
</a>
</g>
</g>
<!-- Node21 -->
<g id="Node000021" class="node">
<title>Node21</title>
<g id="a_Node000021"><a xlink:href="group__mcp9600__base__driver.html#gac0ebe612f2b53f8da1f40b6e2b2d37b4" target="_top" xlink:title="set the filter coefficient">
<polygon fill="white" stroke="#666666" points="280.62,-234 182.12,-234 182.12,-202 280.62,-202 280.62,-234"/>
<text xml:space="preserve" text-anchor="start" x="190.12" y="-220.5" font-family="Helvetica,sans-Serif" font-size="10.00">mcp9600_set_filter</text>
<text xml:space="preserve" text-anchor="middle" x="231.38" y="-208.5" font-family="Helvetica,sans-Serif" font-size="10.00">_coefficient</text>
</a>
</g>
</g>
<!-- Node1&#45;&gt;Node21 -->
<g id="edge20_Node000001_Node000021" class="edge">
<title>Node1&#45;&gt;Node21</title>
<g id="a_edge20_Node000001_Node000021"><a xlink:title=" ">
<path fill="none" stroke="#63b8ff" d="M58.45,-503.69C60.25,-463.95 72.15,-319.15 150.25,-243 156.2,-237.2 163.48,-232.74 171.2,-229.31"/>
<polygon fill="#63b8ff" stroke="#63b8ff" points="172.39,-232.6 180.5,-225.79 169.91,-226.06 172.39,-232.6"/>
</a>
</g>
</g>
<!-- Node22 -->
<g id="Node000022" class="node">
<title>Node22</title>
<g id="a_Node000022"><a xlink:href="group__mcp9600__base__driver.html#gae7673225885adde351373938f1f1d0ea" target="_top" xlink:title="set the interrupt mode">
<polygon fill="white" stroke="#666666" points="303.5,-184 159.25,-184 159.25,-164 303.5,-164 303.5,-184"/>
<text xml:space="preserve" text-anchor="middle" x="231.38" y="-170.5" font-family="Helvetica,sans-Serif" font-size="10.00">mcp9600_set_interrupt_mode</text>
</a>
</g>
</g>
<!-- Node1&#45;&gt;Node22 -->
<g id="edge21_Node000001_Node000022" class="edge">
<title>Node1&#45;&gt;Node22</title>
<g id="a_edge21_Node000001_Node000022"><a xlink:title=" ">
<path fill="none" stroke="#63b8ff" d="M57.65,-503.52C56.23,-458.8 56.93,-282.07 150.25,-193 151.15,-192.14 152.09,-191.31 153.06,-190.52"/>
<polygon fill="#63b8ff" stroke="#63b8ff" points="154.76,-193.59 161.16,-185.14 150.9,-187.75 154.76,-193.59"/>
</a>
</g>
</g>
<!-- Node23 -->
<g id="Node000023" class="node">
<title>Node23</title>
<g id="a_Node000023"><a xlink:href="group__mcp9600__base__driver.html#ga5880f966134c57de26a800e555cf9669" target="_top" xlink:title="set the mode">
<polygon fill="white" stroke="#666666" points="283.25,-146 179.5,-146 179.5,-126 283.25,-126 283.25,-146"/>
<text xml:space="preserve" text-anchor="middle" x="231.38" y="-132.5" font-family="Helvetica,sans-Serif" font-size="10.00">mcp9600_set_mode</text>
</a>
</g>
</g>
<!-- Node1&#45;&gt;Node23 -->
<g id="edge22_Node000001_Node000023" class="edge">
<title>Node1&#45;&gt;Node23</title>
<g id="a_edge22_Node000001_Node000023"><a xlink:title=" ">
<path fill="none" stroke="#63b8ff" d="M59.35,-503.55C65.87,-449.93 98.02,-206.28 150.25,-155 155.4,-149.94 161.65,-146.14 168.35,-143.29"/>
<polygon fill="#63b8ff" stroke="#63b8ff" points="169.41,-146.63 177.73,-140.06 167.13,-140.01 169.41,-146.63"/>
</a>
</g>
</g>
<!-- Node24 -->
<g id="Node000024" class="node">
<title>Node24</title>
<g id="a_Node000024"><a xlink:href="group__mcp9600__base__driver.html#gac70d652092c390c930ccb36e7eaa446d" target="_top" xlink:title="set the temperature maintain detect">
<polygon fill="white" stroke="#666666" points="297.12,-108 165.62,-108 165.62,-76 297.12,-76 297.12,-108"/>
<text xml:space="preserve" text-anchor="start" x="173.62" y="-94.5" font-family="Helvetica,sans-Serif" font-size="10.00">mcp9600_set_temperature</text>
<text xml:space="preserve" text-anchor="middle" x="231.38" y="-82.5" font-family="Helvetica,sans-Serif" font-size="10.00">_maintain_detect</text>
</a>
</g>
</g>
<!-- Node1&#45;&gt;Node24 -->
<g id="edge23_Node000001_Node000024" class="edge">
<title>Node1&#45;&gt;Node24</title>
<g id="a_edge23_Node000001_Node000024"><a xlink:title=" ">
<path fill="none" stroke="#63b8ff" d="M59.14,-503.66C64.91,-447.2 95.13,-176.38 150.25,-117 151.98,-115.13 153.85,-113.41 155.83,-111.81"/>
<polygon fill="#63b8ff" stroke="#63b8ff" points="157.51,-114.9 163.87,-106.43 153.61,-109.08 157.51,-114.9"/>
</a>
</g>
</g>
<!-- Node25 -->
<g id="Node000025" class="node">
<title>Node25</title>
<g id="a_Node000025"><a xlink:href="group__mcp9600__base__driver.html#ga5623f47bbaee76dcd5ee60a52a8cef92" target="_top" xlink:title="set the thermocouple type">
<polygon fill="white" stroke="#666666" points="312.5,-58 150.25,-58 150.25,-38 312.5,-38 312.5,-58"/>
<text xml:space="preserve" text-anchor="middle" x="231.38" y="-44.5" font-family="Helvetica,sans-Serif" font-size="10.00">mcp9600_set_thermocouple_type</text>
</a>
</g>
</g>
<!-- Node1&#45;&gt;Node25 -->
<g id="edge24_Node000001_Node000025" class="edge">
<title>Node1&#45;&gt;Node25</title>
<g id="a_edge24_Node000001_Node000025"><a xlink:title=" ">
<path fill="none" stroke="#63b8ff" d="M58.79,-503.53C62.89,-442.44 86.64,-132.52 150.25,-67 150.87,-66.37 151.5,-65.75 152.15,-65.15"/>
<polygon fill="#63b8ff" stroke="#63b8ff" points="154.14,-68.04 160.16,-59.32 150.01,-62.38 154.14,-68.04"/>
</a>
</g>
</g>
<!-- Node26 -->
<g id="Node000026" class="node">
<title>Node26</title>
<g id="a_Node000026"><a xlink:href="group__mcp9600__base__driver.html#ga5884ea820fb20f608d1aa39c9c89382f" target="_top" xlink:title="start reading data">
<polygon fill="white" stroke="#666666" points="309.88,-20 152.88,-20 152.88,0 309.88,0 309.88,-20"/>
<text xml:space="preserve" text-anchor="middle" x="231.38" y="-6.5" font-family="Helvetica,sans-Serif" font-size="10.00">mcp9600_start_continuous_read</text>
</a>
</g>
</g>
<!-- Node1&#45;&gt;Node26 -->
<g id="edge25_Node000001_Node000026" class="edge">
<title>Node1&#45;&gt;Node26</title>
<g id="a_edge25_Node000001_Node000026"><a xlink:title=" ">
<path fill="none" stroke="#63b8ff" d="M58.59,-503.91C61.71,-440.8 81.55,-100.87 150.25,-29 150.86,-28.36 151.49,-27.74 152.13,-27.14"/>
<polygon fill="#63b8ff" stroke="#63b8ff" points="154.13,-30.02 160.1,-21.27 149.98,-24.38 154.13,-30.02"/>
</a>
</g>
</g>
</g>
</svg>
