<?xml version="1.0" encoding="UTF-8" standalone="no"?>
<!DOCTYPE svg PUBLIC "-//W3C//DTD SVG 1.1//EN"
 "http://www.w3.org/Graphics/SVG/1.1/DTD/svg11.dtd">
<!-- Generated by graphviz version 13.1.0 (20250701.0955)
 -->
<!-- Title: mcp9600_basic_init Pages: 1 -->
<svg width="309pt" height="1072pt"
 viewBox="0.00 0.00 309.00 1072.00" xmlns="http://www.w3.org/2000/svg" xmlns:xlink="http://www.w3.org/1999/xlink">
<g id="graph0" class="graph" transform="scale(1 1) rotate(0) translate(4 1068)">
<title>mcp9600_basic_init</title>
<!-- Node1 -->
<g id="Node000001" class="node">
<title>Node1</title>
<g id="a_Node000001"><a xlink:title="basic example init">
<polygon fill="#999999" stroke="#666666" points="102.25,-524 0,-524 0,-504 102.25,-504 102.25,-524"/>
<text xml:space="preserve" text-anchor="middle" x="51.12" y="-510.5" font-family="Helvetica,sans-Serif" font-size="10.00">mcp9600_basic_init</text>
</a>
</g>
</g>
<!-- Node2 -->
<g id="Node000002" class="node">
<title>Node2</title>
<g id="a_Node000002"><a xlink:href="group__mcp9600__base__driver.html#ga80d19ef147e0b82a3a3d04454acf642b" target="_top" xlink:title="convert the alert hysteresis to the register raw data">
<polygon fill="white" stroke="#666666" points="284.38,-1064 154.38,-1064 154.38,-1032 284.38,-1032 284.38,-1064"/>
<text xml:space="preserve" text-anchor="start" x="162.38" y="-1050.5" font-family="Helvetica,sans-Serif" font-size="10.00">mcp9600_alert_hysteresis</text>
<text xml:space="preserve" text-anchor="middle" x="219.38" y="-1038.5" font-family="Helvetica,sans-Serif" font-size="10.00">_convert_to_register</text>
</a>
</g>
</g>
<!-- Node1&#45;&gt;Node2 -->
<g id="edge1_Node000001_Node000002" class="edge">
<title>Node1&#45;&gt;Node2</title>
<g id="a_edge1_Node000001_Node000002"><a xlink:title=" ">
<path fill="none" stroke="#63b8ff" d="M52.44,-524.1C54.63,-588.75 69.71,-944.53 138.25,-1023 140.18,-1025.21 142.3,-1027.22 144.57,-1029.06"/>
<polygon fill="#63b8ff" stroke="#63b8ff" points="142.46,-1031.86 152.72,-1034.48 146.33,-1026.03 142.46,-1031.86"/>
</a>
</g>
</g>
<!-- Node3 -->
<g id="Node000003" class="node">
<title>Node3</title>
<g id="a_Node000003"><a xlink:href="group__mcp9600__base__driver.html#ga794ae6996fc6a11bc1553eb5f27e013c" target="_top" xlink:title="convert the alert limit to the register raw data">
<polygon fill="white" stroke="#666666" points="271.62,-1014 167.12,-1014 167.12,-982 271.62,-982 271.62,-1014"/>
<text xml:space="preserve" text-anchor="start" x="175.12" y="-1000.5" font-family="Helvetica,sans-Serif" font-size="10.00">mcp9600_alert_limit</text>
<text xml:space="preserve" text-anchor="middle" x="219.38" y="-988.5" font-family="Helvetica,sans-Serif" font-size="10.00">_convert_to_register</text>
</a>
</g>
</g>
<!-- Node1&#45;&gt;Node3 -->
<g id="edge2_Node000001_Node000003" class="edge">
<title>Node1&#45;&gt;Node3</title>
<g id="a_edge2_Node000001_Node000003"><a xlink:title=" ">
<path fill="none" stroke="#63b8ff" d="M52.65,-524.28C55.97,-585.6 76.02,-903.03 138.25,-973 143.33,-978.71 149.68,-983.12 156.58,-986.54"/>
<polygon fill="#63b8ff" stroke="#63b8ff" points="155.01,-989.68 165.59,-990.29 157.7,-983.22 155.01,-989.68"/>
</a>
</g>
</g>
<!-- Node4 -->
<g id="Node000004" class="node">
<title>Node4</title>
<g id="a_Node000004"><a xlink:href="group__mcp9600__base__driver.html#gaf2d00e5cb1819fa65f9bcfae155f8d67" target="_top" xlink:title="close the chip">
<polygon fill="white" stroke="#666666" points="261.5,-964 177.25,-964 177.25,-944 261.5,-944 261.5,-964"/>
<text xml:space="preserve" text-anchor="middle" x="219.38" y="-950.5" font-family="Helvetica,sans-Serif" font-size="10.00">mcp9600_deinit</text>
</a>
</g>
</g>
<!-- Node1&#45;&gt;Node4 -->
<g id="edge3_Node000001_Node000004" class="edge">
<title>Node1&#45;&gt;Node4</title>
<g id="a_edge3_Node000001_Node000004"><a xlink:title=" ">
<path fill="none" stroke="#63b8ff" d="M52.76,-524.24C56.6,-582.66 78.53,-873.4 138.25,-935 145.63,-942.61 155.46,-947.41 165.7,-950.38"/>
<polygon fill="#63b8ff" stroke="#63b8ff" points="164.87,-953.78 175.4,-952.6 166.43,-946.96 164.87,-953.78"/>
</a>
</g>
</g>
<!-- Node5 -->
<g id="Node000005" class="node">
<title>Node5</title>
<g id="a_Node000005"><a xlink:href="group__mcp9600__base__driver.html#gafbfdae20b5402e3b820c984cac0996cc" target="_top" xlink:title="initialize the chip">
<polygon fill="white" stroke="#666666" points="256.25,-926 182.5,-926 182.5,-906 256.25,-906 256.25,-926"/>
<text xml:space="preserve" text-anchor="middle" x="219.38" y="-912.5" font-family="Helvetica,sans-Serif" font-size="10.00">mcp9600_init</text>
</a>
</g>
</g>
<!-- Node1&#45;&gt;Node5 -->
<g id="edge4_Node000001_Node000005" class="edge">
<title>Node1&#45;&gt;Node5</title>
<g id="a_edge4_Node000001_Node000005"><a xlink:title=" ">
<path fill="none" stroke="#63b8ff" d="M53,-524.39C57.87,-579.97 83.51,-841.62 138.25,-897 147.02,-905.87 159.13,-910.91 171.27,-913.68"/>
<polygon fill="#63b8ff" stroke="#63b8ff" points="170.39,-917.08 180.85,-915.38 171.62,-910.19 170.39,-917.08"/>
</a>
</g>
</g>
<!-- Node6 -->
<g id="Node000006" class="node">
<title>Node6</title>
<g id="a_Node000006"><a xlink:href="group__mcp9600__interface__driver.html#ga750ea6193ec3f854306006205119c032" target="_top" xlink:title="interface print format data">
<polygon fill="white" stroke="#666666" points="284.38,-888 154.38,-888 154.38,-856 284.38,-856 284.38,-888"/>
<text xml:space="preserve" text-anchor="start" x="162.38" y="-874.5" font-family="Helvetica,sans-Serif" font-size="10.00">mcp9600_interface_debug</text>
<text xml:space="preserve" text-anchor="middle" x="219.38" y="-862.5" font-family="Helvetica,sans-Serif" font-size="10.00">_print</text>
</a>
</g>
</g>
<!-- Node1&#45;&gt;Node6 -->
<g id="edge5_Node000001_Node000006" class="edge">
<title>Node1&#45;&gt;Node6</title>
<g id="a_edge5_Node000001_Node000006"><a xlink:title=" ">
<path fill="none" stroke="#63b8ff" d="M53.43,-524.3C60.08,-575.03 91.62,-798.02 138.25,-847 140.23,-849.08 142.38,-850.98 144.65,-852.73"/>
<polygon fill="#63b8ff" stroke="#63b8ff" points="142.44,-855.47 152.75,-857.91 146.21,-849.57 142.44,-855.47"/>
</a>
</g>
</g>
<!-- Node7 -->
<g id="Node000007" class="node">
<title>Node7</title>
<g id="a_Node000007"><a xlink:href="group__mcp9600__interface__driver.html#ga76318609135b6f0eaeb2481a1711c1ef" target="_top" xlink:title="interface delay ms">
<polygon fill="white" stroke="#666666" points="292.25,-838 146.5,-838 146.5,-818 292.25,-818 292.25,-838"/>
<text xml:space="preserve" text-anchor="middle" x="219.38" y="-824.5" font-family="Helvetica,sans-Serif" font-size="10.00">mcp9600_interface_delay_ms</text>
</a>
</g>
</g>
<!-- Node1&#45;&gt;Node7 -->
<g id="edge6_Node000001_Node000007" class="edge">
<title>Node1&#45;&gt;Node7</title>
<g id="a_edge6_Node000001_Node000007"><a xlink:title=" ">
<path fill="none" stroke="#63b8ff" d="M51.72,-524.48C50.69,-566.94 52.77,-727.79 138.25,-809 139.16,-809.86 140.1,-810.69 141.06,-811.48"/>
<polygon fill="#63b8ff" stroke="#63b8ff" points="138.91,-814.25 149.18,-816.84 142.77,-808.41 138.91,-814.25"/>
</a>
</g>
</g>
<!-- Node8 -->
<g id="Node000008" class="node">
<title>Node8</title>
<g id="a_Node000008"><a xlink:href="group__mcp9600__interface__driver.html#ga00f1a24c086b36536ad33a2f354f237b" target="_top" xlink:title="interface iic bus deinit">
<polygon fill="white" stroke="#666666" points="276.12,-800 162.62,-800 162.62,-768 276.12,-768 276.12,-800"/>
<text xml:space="preserve" text-anchor="start" x="170.62" y="-786.5" font-family="Helvetica,sans-Serif" font-size="10.00">mcp9600_interface_iic</text>
<text xml:space="preserve" text-anchor="middle" x="219.38" y="-774.5" font-family="Helvetica,sans-Serif" font-size="10.00">_deinit</text>
</a>
</g>
</g>
<!-- Node1&#45;&gt;Node8 -->
<g id="edge7_Node000001_Node000008" class="edge">
<title>Node1&#45;&gt;Node8</title>
<g id="a_edge7_Node000001_Node000008"><a xlink:title=" ">
<path fill="none" stroke="#63b8ff" d="M52.59,-524.34C54.86,-561.67 67.69,-690.9 138.25,-759 142.4,-763.01 147.19,-766.37 152.31,-769.2"/>
<polygon fill="#63b8ff" stroke="#63b8ff" points="150.6,-772.26 161.14,-773.36 153.58,-765.93 150.6,-772.26"/>
</a>
</g>
</g>
<!-- Node9 -->
<g id="Node000009" class="node">
<title>Node9</title>
<g id="a_Node000009"><a xlink:href="group__mcp9600__interface__driver.html#gab398db2abe0ad0002f6c2cd7cc5f136b" target="_top" xlink:title="interface iic bus init">
<polygon fill="white" stroke="#666666" points="285.12,-750 153.62,-750 153.62,-730 285.12,-730 285.12,-750"/>
<text xml:space="preserve" text-anchor="middle" x="219.38" y="-736.5" font-family="Helvetica,sans-Serif" font-size="10.00">mcp9600_interface_iic_init</text>
</a>
</g>
</g>
<!-- Node1&#45;&gt;Node9 -->
<g id="edge8_Node000001_Node000009" class="edge">
<title>Node1&#45;&gt;Node9</title>
<g id="a_edge8_Node000001_Node000009"><a xlink:title=" ">
<path fill="none" stroke="#63b8ff" d="M53.14,-524.06C57.08,-557.63 74.5,-666.79 138.25,-721 139.92,-722.42 141.69,-723.75 143.52,-724.97"/>
<polygon fill="#63b8ff" stroke="#63b8ff" points="141.44,-727.82 151.88,-729.61 144.83,-721.7 141.44,-727.82"/>
</a>
</g>
</g>
<!-- Node10 -->
<g id="Node000010" class="node">
<title>Node10</title>
<g id="a_Node000010"><a xlink:href="group__mcp9600__interface__driver.html#gac54328353b81756b2c6ef9c1cd6886ad" target="_top" xlink:title="interface iic bus read command">
<polygon fill="white" stroke="#666666" points="276.12,-712 162.62,-712 162.62,-680 276.12,-680 276.12,-712"/>
<text xml:space="preserve" text-anchor="start" x="170.62" y="-698.5" font-family="Helvetica,sans-Serif" font-size="10.00">mcp9600_interface_iic</text>
<text xml:space="preserve" text-anchor="middle" x="219.38" y="-686.5" font-family="Helvetica,sans-Serif" font-size="10.00">_read_cmd</text>
</a>
</g>
</g>
<!-- Node1&#45;&gt;Node10 -->
<g id="edge9_Node000001_Node000010" class="edge">
<title>Node1&#45;&gt;Node10</title>
<g id="a_edge9_Node000001_Node000010"><a xlink:title=" ">
<path fill="none" stroke="#63b8ff" d="M54.79,-524.17C62.63,-552 88.2,-630.05 138.25,-671 142.47,-674.45 147.17,-677.43 152.11,-680"/>
<polygon fill="#63b8ff" stroke="#63b8ff" points="150.6,-683.15 161.16,-684.09 153.49,-676.78 150.6,-683.15"/>
</a>
</g>
</g>
<!-- Node11 -->
<g id="Node000011" class="node">
<title>Node11</title>
<g id="a_Node000011"><a xlink:href="group__mcp9600__interface__driver.html#ga21a02d87922bc92dc00ae78dbc86818c" target="_top" xlink:title="interface iic bus write command">
<polygon fill="white" stroke="#666666" points="276.12,-662 162.62,-662 162.62,-630 276.12,-630 276.12,-662"/>
<text xml:space="preserve" text-anchor="start" x="170.62" y="-648.5" font-family="Helvetica,sans-Serif" font-size="10.00">mcp9600_interface_iic</text>
<text xml:space="preserve" text-anchor="middle" x="219.38" y="-636.5" font-family="Helvetica,sans-Serif" font-size="10.00">_write_cmd</text>
</a>
</g>
</g>
<!-- Node1&#45;&gt;Node11 -->
<g id="edge10_Node000001_Node000011" class="edge">
<title>Node1&#45;&gt;Node11</title>
<g id="a_edge10_Node000001_Node000011"><a xlink:title=" ">
<path fill="none" stroke="#63b8ff" d="M57.55,-524.22C69.35,-545.45 99.42,-594.56 138.25,-621 142.61,-623.97 147.34,-626.6 152.25,-628.93"/>
<polygon fill="#63b8ff" stroke="#63b8ff" points="150.55,-632.01 161.13,-632.7 153.29,-625.57 150.55,-632.01"/>
</a>
</g>
</g>
<!-- Node12 -->
<g id="Node000012" class="node">
<title>Node12</title>
<g id="a_Node000012"><a xlink:href="group__mcp9600__base__driver.html#ga28a0bc0075b060067d69fbb028dd4b50" target="_top" xlink:title="set the active level">
<polygon fill="white" stroke="#666666" points="272.38,-612 166.38,-612 166.38,-580 272.38,-580 272.38,-612"/>
<text xml:space="preserve" text-anchor="start" x="174.38" y="-598.5" font-family="Helvetica,sans-Serif" font-size="10.00">mcp9600_set_active</text>
<text xml:space="preserve" text-anchor="middle" x="219.38" y="-586.5" font-family="Helvetica,sans-Serif" font-size="10.00">_level</text>
</a>
</g>
</g>
<!-- Node1&#45;&gt;Node12 -->
<g id="edge11_Node000001_Node000012" class="edge">
<title>Node1&#45;&gt;Node12</title>
<g id="a_edge11_Node000001_Node000012"><a xlink:title=" ">
<path fill="none" stroke="#63b8ff" d="M65.14,-524.33C81.43,-536.83 110.56,-557.84 138.25,-571 143.76,-573.62 149.61,-576.05 155.55,-578.28"/>
<polygon fill="#63b8ff" stroke="#63b8ff" points="154.24,-581.53 164.84,-581.59 156.59,-574.94 154.24,-581.53"/>
</a>
</g>
</g>
<!-- Node13 -->
<g id="Node000013" class="node">
<title>Node13</title>
<g id="a_Node000013"><a xlink:href="group__mcp9600__base__driver.html#gaf3b47bd6ba2acdacbf6a7c98505f6111" target="_top" xlink:title="set the adc resolution">
<polygon fill="white" stroke="#666666" points="290.75,-562 148,-562 148,-542 290.75,-542 290.75,-562"/>
<text xml:space="preserve" text-anchor="middle" x="219.38" y="-548.5" font-family="Helvetica,sans-Serif" font-size="10.00">mcp9600_set_adc_resolution</text>
</a>
</g>
</g>
<!-- Node1&#45;&gt;Node13 -->
<g id="edge12_Node000001_Node000013" class="edge">
<title>Node1&#45;&gt;Node13</title>
<g id="a_edge12_Node000001_Node000013"><a xlink:title=" ">
<path fill="none" stroke="#63b8ff" d="M97.99,-524.48C117.62,-528.97 140.74,-534.25 161.44,-538.99"/>
<polygon fill="#63b8ff" stroke="#63b8ff" points="160.65,-542.4 171.18,-541.21 162.21,-535.57 160.65,-542.4"/>
</a>
</g>
</g>
<!-- Node14 -->
<g id="Node000014" class="node">
<title>Node14</title>
<g id="a_Node000014"><a xlink:href="group__mcp9600__base__driver.html#gabc7fe15b39a1f45a698edbd64ed4c505" target="_top" xlink:title="set the iic address pin">
<polygon fill="white" stroke="#666666" points="277.62,-524 161.12,-524 161.12,-504 277.62,-504 277.62,-524"/>
<text xml:space="preserve" text-anchor="middle" x="219.38" y="-510.5" font-family="Helvetica,sans-Serif" font-size="10.00">mcp9600_set_addr_pin</text>
</a>
</g>
</g>
<!-- Node1&#45;&gt;Node14 -->
<g id="edge13_Node000001_Node000014" class="edge">
<title>Node1&#45;&gt;Node14</title>
<g id="a_edge13_Node000001_Node000014"><a xlink:title=" ">
<path fill="none" stroke="#63b8ff" d="M102.46,-514C117.22,-514 133.63,-514 149.35,-514"/>
<polygon fill="#63b8ff" stroke="#63b8ff" points="149.12,-517.5 159.12,-514 149.12,-510.5 149.12,-517.5"/>
</a>
</g>
</g>
<!-- Node15 -->
<g id="Node000015" class="node">
<title>Node15</title>
<g id="a_Node000015"><a xlink:href="group__mcp9600__base__driver.html#ga1692487f7003e132e6a6fef86553b9fc" target="_top" xlink:title="set the alert hysteresis">
<polygon fill="white" stroke="#666666" points="293.75,-486 145,-486 145,-466 293.75,-466 293.75,-486"/>
<text xml:space="preserve" text-anchor="middle" x="219.38" y="-472.5" font-family="Helvetica,sans-Serif" font-size="10.00">mcp9600_set_alert_hysteresis</text>
</a>
</g>
</g>
<!-- Node1&#45;&gt;Node15 -->
<g id="edge14_Node000001_Node000015" class="edge">
<title>Node1&#45;&gt;Node15</title>
<g id="a_edge14_Node000001_Node000015"><a xlink:title=" ">
<path fill="none" stroke="#63b8ff" d="M97.99,-503.52C117.62,-499.03 140.74,-493.75 161.44,-489.01"/>
<polygon fill="#63b8ff" stroke="#63b8ff" points="162.21,-492.43 171.18,-486.79 160.65,-485.6 162.21,-492.43"/>
</a>
</g>
</g>
<!-- Node16 -->
<g id="Node000016" class="node">
<title>Node16</title>
<g id="a_Node000016"><a xlink:href="group__mcp9600__base__driver.html#ga51a4c6c7c6e87e384a343e844ae96036" target="_top" xlink:title="set the alert limit">
<polygon fill="white" stroke="#666666" points="280.25,-448 158.5,-448 158.5,-428 280.25,-428 280.25,-448"/>
<text xml:space="preserve" text-anchor="middle" x="219.38" y="-434.5" font-family="Helvetica,sans-Serif" font-size="10.00">mcp9600_set_alert_limit</text>
</a>
</g>
</g>
<!-- Node1&#45;&gt;Node16 -->
<g id="edge15_Node000001_Node000016" class="edge">
<title>Node1&#45;&gt;Node16</title>
<g id="a_edge15_Node000001_Node000016"><a xlink:title=" ">
<path fill="none" stroke="#63b8ff" d="M64.72,-503.58C80.8,-490.77 109.95,-469.26 138.25,-457 142.6,-455.11 147.18,-453.4 151.83,-451.84"/>
<polygon fill="#63b8ff" stroke="#63b8ff" points="152.82,-455.2 161.36,-448.92 150.77,-448.5 152.82,-455.2"/>
</a>
</g>
</g>
<!-- Node17 -->
<g id="Node000017" class="node">
<title>Node17</title>
<g id="a_Node000017"><a xlink:href="group__mcp9600__base__driver.html#gab501cc810e55ad20dd8f3ab533d99490" target="_top" xlink:title="set the alert output">
<polygon fill="white" stroke="#666666" points="284.75,-410 154,-410 154,-390 284.75,-390 284.75,-410"/>
<text xml:space="preserve" text-anchor="middle" x="219.38" y="-396.5" font-family="Helvetica,sans-Serif" font-size="10.00">mcp9600_set_alert_output</text>
</a>
</g>
</g>
<!-- Node1&#45;&gt;Node17 -->
<g id="edge16_Node000001_Node000017" class="edge">
<title>Node1&#45;&gt;Node17</title>
<g id="a_edge16_Node000001_Node000017"><a xlink:title=" ">
<path fill="none" stroke="#63b8ff" d="M58.48,-503.54C71.09,-483.75 101.26,-440.85 138.25,-419 140.87,-417.45 143.61,-416.03 146.43,-414.72"/>
<polygon fill="#63b8ff" stroke="#63b8ff" points="147.57,-418.04 155.53,-411.05 144.94,-411.55 147.57,-418.04"/>
</a>
</g>
</g>
<!-- Node18 -->
<g id="Node000018" class="node">
<title>Node18</title>
<g id="a_Node000018"><a xlink:href="group__mcp9600__base__driver.html#gac9776ca6e0ca4798f75205f877841095" target="_top" xlink:title="set the burst mode sample">
<polygon fill="white" stroke="#666666" points="284.75,-372 154,-372 154,-340 284.75,-340 284.75,-372"/>
<text xml:space="preserve" text-anchor="start" x="162" y="-358.5" font-family="Helvetica,sans-Serif" font-size="10.00">mcp9600_set_burst_mode</text>
<text xml:space="preserve" text-anchor="middle" x="219.38" y="-346.5" font-family="Helvetica,sans-Serif" font-size="10.00">_sample</text>
</a>
</g>
</g>
<!-- Node1&#45;&gt;Node18 -->
<g id="edge17_Node000001_Node000018" class="edge">
<title>Node1&#45;&gt;Node18</title>
<g id="a_edge17_Node000001_Node000018"><a xlink:title=" ">
<path fill="none" stroke="#63b8ff" d="M55.95,-503.6C65.68,-478.61 93.77,-414.76 138.25,-381 140.03,-379.65 141.89,-378.36 143.81,-377.15"/>
<polygon fill="#63b8ff" stroke="#63b8ff" points="145.43,-380.26 152.5,-372.37 142.05,-374.12 145.43,-380.26"/>
</a>
</g>
</g>
<!-- Node19 -->
<g id="Node000019" class="node">
<title>Node19</title>
<g id="a_Node000019"><a xlink:href="group__mcp9600__base__driver.html#ga3aea5edae9ee20f8766c60203018b3fb" target="_top" xlink:title="set the cold junction resolution">
<polygon fill="white" stroke="#666666" points="287.75,-322 151,-322 151,-290 287.75,-290 287.75,-322"/>
<text xml:space="preserve" text-anchor="start" x="159" y="-308.5" font-family="Helvetica,sans-Serif" font-size="10.00">mcp9600_set_cold_junction</text>
<text xml:space="preserve" text-anchor="middle" x="219.38" y="-296.5" font-family="Helvetica,sans-Serif" font-size="10.00">_resolution</text>
</a>
</g>
</g>
<!-- Node1&#45;&gt;Node19 -->
<g id="edge18_Node000001_Node000019" class="edge">
<title>Node1&#45;&gt;Node19</title>
<g id="a_edge18_Node000001_Node000019"><a xlink:title=" ">
<path fill="none" stroke="#63b8ff" d="M53.99,-503.54C60.1,-472.43 82.39,-379.67 138.25,-331 139.18,-330.19 140.14,-329.4 141.13,-328.64"/>
<polygon fill="#63b8ff" stroke="#63b8ff" points="142.84,-331.7 149.28,-323.28 139,-325.85 142.84,-331.7"/>
</a>
</g>
</g>
<!-- Node20 -->
<g id="Node000020" class="node">
<title>Node20</title>
<g id="a_Node000020"><a xlink:href="group__mcp9600__base__driver.html#ga2dfbba36857a81b1731555e6e978d788" target="_top" xlink:title="set the detect edge">
<polygon fill="white" stroke="#666666" points="285.88,-272 152.88,-272 152.88,-252 285.88,-252 285.88,-272"/>
<text xml:space="preserve" text-anchor="middle" x="219.38" y="-258.5" font-family="Helvetica,sans-Serif" font-size="10.00">mcp9600_set_detect_edge</text>
</a>
</g>
</g>
<!-- Node1&#45;&gt;Node20 -->
<g id="edge19_Node000001_Node000020" class="edge">
<title>Node1&#45;&gt;Node20</title>
<g id="a_edge19_Node000001_Node000020"><a xlink:title=" ">
<path fill="none" stroke="#63b8ff" d="M52.63,-503.74C55.02,-467.32 68.19,-343.04 138.25,-281 139.72,-279.7 141.27,-278.48 142.87,-277.34"/>
<polygon fill="#63b8ff" stroke="#63b8ff" points="144.46,-280.47 151.34,-272.42 140.94,-274.42 144.46,-280.47"/>
</a>
</g>
</g>
<!-- Node21 -->
<g id="Node000021" class="node">
<title>Node21</title>
<g id="a_Node000021"><a xlink:href="group__mcp9600__base__driver.html#gac0ebe612f2b53f8da1f40b6e2b2d37b4" target="_top" xlink:title="set the filter coefficient">
<polygon fill="white" stroke="#666666" points="268.62,-234 170.12,-234 170.12,-202 268.62,-202 268.62,-234"/>
<text xml:space="preserve" text-anchor="start" x="178.12" y="-220.5" font-family="Helvetica,sans-Serif" font-size="10.00">mcp9600_set_filter</text>
<text xml:space="preserve" text-anchor="middle" x="219.38" y="-208.5" font-family="Helvetica,sans-Serif" font-size="10.00">_coefficient</text>
</a>
</g>
</g>
<!-- Node1&#45;&gt;Node21 -->
<g id="edge20_Node000001_Node000021" class="edge">
<title>Node1&#45;&gt;Node21</title>
<g id="a_edge20_Node000001_Node000021"><a xlink:title=" ">
<path fill="none" stroke="#63b8ff" d="M52.19,-503.7C53.03,-464.02 61.43,-319.42 138.25,-243 144.15,-237.14 151.39,-232.64 159.1,-229.2"/>
<polygon fill="#63b8ff" stroke="#63b8ff" points="160.29,-232.5 168.39,-225.67 157.8,-225.95 160.29,-232.5"/>
</a>
</g>
</g>
<!-- Node22 -->
<g id="Node000022" class="node">
<title>Node22</title>
<g id="a_Node000022"><a xlink:href="group__mcp9600__base__driver.html#gae7673225885adde351373938f1f1d0ea" target="_top" xlink:title="set the interrupt mode">
<polygon fill="white" stroke="#666666" points="291.5,-184 147.25,-184 147.25,-164 291.5,-164 291.5,-184"/>
<text xml:space="preserve" text-anchor="middle" x="219.38" y="-170.5" font-family="Helvetica,sans-Serif" font-size="10.00">mcp9600_set_interrupt_mode</text>
</a>
</g>
</g>
<!-- Node1&#45;&gt;Node22 -->
<g id="edge21_Node000001_Node000022" class="edge">
<title>Node1&#45;&gt;Node22</title>
<g id="a_edge21_Node000001_Node000022"><a xlink:title=" ">
<path fill="none" stroke="#63b8ff" d="M53.47,-503.68C60.16,-453.82 91.48,-238.42 138.25,-193 139.01,-192.26 139.8,-191.55 140.61,-190.86"/>
<polygon fill="#63b8ff" stroke="#63b8ff" points="142.46,-193.83 148.73,-185.3 138.5,-188.06 142.46,-193.83"/>
</a>
</g>
</g>
<!-- Node23 -->
<g id="Node000023" class="node">
<title>Node23</title>
<g id="a_Node000023"><a xlink:href="group__mcp9600__base__driver.html#ga5880f966134c57de26a800e555cf9669" target="_top" xlink:title="set the mode">
<polygon fill="white" stroke="#666666" points="271.25,-146 167.5,-146 167.5,-126 271.25,-126 271.25,-146"/>
<text xml:space="preserve" text-anchor="middle" x="219.38" y="-132.5" font-family="Helvetica,sans-Serif" font-size="10.00">mcp9600_set_mode</text>
</a>
</g>
</g>
<!-- Node1&#45;&gt;Node23 -->
<g id="edge22_Node000001_Node000023" class="edge">
<title>Node1&#45;&gt;Node23</title>
<g id="a_edge22_Node000001_Node000023"><a xlink:title=" ">
<path fill="none" stroke="#63b8ff" d="M53.17,-503.56C58.74,-449.98 86.63,-206.49 138.25,-155 143.36,-149.9 149.58,-146.07 156.27,-143.21"/>
<polygon fill="#63b8ff" stroke="#63b8ff" points="157.33,-146.55 165.64,-139.97 155.04,-139.93 157.33,-146.55"/>
</a>
</g>
</g>
<!-- Node24 -->
<g id="Node000024" class="node">
<title>Node24</title>
<g id="a_Node000024"><a xlink:href="group__mcp9600__base__driver.html#gac70d652092c390c930ccb36e7eaa446d" target="_top" xlink:title="set the temperature maintain detect">
<polygon fill="white" stroke="#666666" points="285.12,-108 153.62,-108 153.62,-76 285.12,-76 285.12,-108"/>
<text xml:space="preserve" text-anchor="start" x="161.62" y="-94.5" font-family="Helvetica,sans-Serif" font-size="10.00">mcp9600_set_temperature</text>
<text xml:space="preserve" text-anchor="middle" x="219.38" y="-82.5" font-family="Helvetica,sans-Serif" font-size="10.00">_maintain_detect</text>
</a>
</g>
</g>
<!-- Node1&#45;&gt;Node24 -->
<g id="edge23_Node000001_Node000024" class="edge">
<title>Node1&#45;&gt;Node24</title>
<g id="a_edge23_Node000001_Node000024"><a xlink:title=" ">
<path fill="none" stroke="#63b8ff" d="M52.98,-503.67C57.84,-447.24 83.74,-176.58 138.25,-117 140.01,-115.08 141.91,-113.3 143.93,-111.66"/>
<polygon fill="#63b8ff" stroke="#63b8ff" points="145.81,-114.61 152.18,-106.15 141.92,-108.79 145.81,-114.61"/>
</a>
</g>
</g>
<!-- Node25 -->
<g id="Node000025" class="node">
<title>Node25</title>
<g id="a_Node000025"><a xlink:href="group__mcp9600__base__driver.html#ga5623f47bbaee76dcd5ee60a52a8cef92" target="_top" xlink:title="set the thermocouple type">
<polygon fill="white" stroke="#666666" points="300.5,-58 138.25,-58 138.25,-38 300.5,-38 300.5,-58"/>
<text xml:space="preserve" text-anchor="middle" x="219.38" y="-44.5" font-family="Helvetica,sans-Serif" font-size="10.00">mcp9600_set_thermocouple_type</text>
</a>
</g>
</g>
<!-- Node1&#45;&gt;Node25 -->
<g id="edge24_Node000001_Node000025" class="edge">
<title>Node1&#45;&gt;Node25</title>
<g id="a_edge24_Node000001_Node000025"><a xlink:title=" ">
<path fill="none" stroke="#63b8ff" d="M52.64,-503.54C55.87,-442.48 75.23,-132.76 138.25,-67 138.86,-66.36 139.49,-65.74 140.14,-65.14"/>
<polygon fill="#63b8ff" stroke="#63b8ff" points="142.13,-68.02 148.11,-59.28 137.98,-62.38 142.13,-68.02"/>
</a>
</g>
</g>
<!-- Node26 -->
<g id="Node000026" class="node">
<title>Node26</title>
<g id="a_Node000026"><a xlink:href="group__mcp9600__base__driver.html#ga5884ea820fb20f608d1aa39c9c89382f" target="_top" xlink:title="start reading data">
<polygon fill="white" stroke="#666666" points="297.88,-20 140.88,-20 140.88,0 297.88,0 297.88,-20"/>
<text xml:space="preserve" text-anchor="middle" x="219.38" y="-6.5" font-family="Helvetica,sans-Serif" font-size="10.00">mcp9600_start_continuous_read</text>
</a>
</g>
</g>
<!-- Node1&#45;&gt;Node26 -->
<g id="edge25_Node000001_Node000026" class="edge">
<title>Node1&#45;&gt;Node26</title>
<g id="a_edge25_Node000001_Node000026"><a xlink:title=" ">
<path fill="none" stroke="#63b8ff" d="M52.47,-503.5C54.81,-439.38 70.28,-100.96 138.25,-29 138.86,-28.36 139.48,-27.73 140.12,-27.13"/>
<polygon fill="#63b8ff" stroke="#63b8ff" points="142.12,-30 148.06,-21.23 137.95,-24.39 142.12,-30"/>
</a>
</g>
</g>
</g>
</svg>
